<svg width="496" height="183" viewBox="0 0 496 183" fill="none" xmlns="http://www.w3.org/2000/svg">
<path d="M5 0.5H491C493.485 0.5 495.5 2.51472 495.5 5V178C495.5 180.485 493.485 182.5 491 182.5H5C2.51472 182.5 0.5 180.485 0.5 178V5C0.500003 2.51472 2.51472 0.5 5 0.5Z" fill="#131313" stroke="#2D2D2D"/>
<path d="M130 23.5H27C24.2386 23.5 22 25.7386 22 28.5V132.5C22 135.261 24.2386 137.5 27 137.5H130C132.761 137.5 135 135.261 135 132.5V28.5C135 25.7386 132.761 23.5 130 23.5Z" fill="#2A7CF6"/>
<path d="M48.8671 111.99H52.3842C55.406 111.99 57.3093 108.707 55.8278 106.05L52.3108 99.7415C50.3175 96.1664 44.9161 97.5939 44.9161 101.696V108.003C44.9161 110.205 46.6851 111.99 48.8671 111.99Z" fill="white"/>
<path d="M84.4266 111.99H87.9436C90.9655 111.99 92.8688 108.707 91.3872 106.05L87.8702 99.7415C85.8769 96.1664 80.4755 97.5939 80.4755 101.696V108.003C80.4755 110.205 82.2445 111.99 84.4266 111.99Z" fill="white"/>
<path d="M65.4615 90.465C65.4615 88.2636 67.2305 86.479 69.4126 86.479H80.4755L80.4755 108.003C80.4755 110.205 78.7066 111.99 76.5245 111.99H65.4615V90.465Z" fill="#E04141"/>
<path d="M59.9301 49.0105V70.535C59.9301 72.7364 58.1611 74.521 55.979 74.521H44.9161L65.4615 111.99V90.465C65.4615 88.2636 67.2305 86.479 69.4126 86.479H80.4755L59.9301 49.0105Z" fill="#1E1919"/>
<path d="M80.4755 101.696C80.4755 97.5939 85.8769 96.1664 87.8702 99.7415L80.4755 86.479L80.4755 101.696Z" fill="#E04141"/>
<path d="M84.4266 111.99C82.2445 111.99 80.4755 110.205 80.4755 108.003C80.4755 110.205 78.7066 111.99 76.5245 111.99L84.4266 111.99Z" fill="white"/>
<path d="M59.9301 49.0105H48.8671C46.6851 49.0105 44.9161 50.7951 44.9161 52.9965V74.521H55.979C58.1611 74.521 59.9301 72.7364 59.9301 70.535V49.0105Z" fill="white"/>
<path d="M55.979 74.521H51.8571C48.794 74.521 46.896 71.157 48.4597 68.4999L52.5817 61.4962C54.6324 58.0118 59.9301 59.4789 59.9301 63.5312V70.535C59.9301 72.7364 58.1611 74.521 55.979 74.521Z" fill="#2A7CF6"/>
<path fill-rule="evenodd" clip-rule="evenodd" d="M55.979 74.521H44.9161L59.9301 49.0105V70.535C59.9301 72.7364 58.1611 74.521 55.979 74.521Z" fill="#2A7CF6"/>
<path d="M80.4755 52.9965C80.4755 50.7951 82.2445 49.0105 84.4266 49.0105H95.4895V70.535C95.4895 72.7364 93.7206 74.521 91.5385 74.521H80.4755V52.9965Z" fill="white"/>
<path d="M101.021 90.465C101.021 88.2636 102.79 86.479 104.972 86.479H116.035V108.003C116.035 110.205 114.266 111.99 112.084 111.99H101.021V90.465Z" fill="#1A1414"/>
<path d="M95.4895 49.0105V70.535C95.4895 72.7364 93.7206 74.521 91.5385 74.521H80.4755L101.021 111.99V90.465C101.021 88.2636 102.79 86.479 104.972 86.479H116.035L95.4895 49.0105Z" fill="#E04141"/>
<path d="M104.972 86.479H109.094C112.157 86.479 114.055 89.843 112.492 92.5L108.369 99.5038C106.319 102.988 101.021 101.521 101.021 97.4688V90.465C101.021 88.2636 102.79 86.479 104.972 86.479Z" fill="#2A7CF6"/>
<path d="M356 46.5C353.239 46.5 351 48.7386 351 51.5V72.5C351 75.2614 353.239 77.5 356 77.5H383V46.5H356Z" fill="#D04E2E"/>
<path d="M470 77.5C472.761 77.5 475 75.2614 475 72.5V51.5C475 48.7386 472.761 46.5 470 46.5H383V77.5H470Z" fill="#131313"/>
<path d="M471.913 46.8799C473.135 47.3866 474.112 48.3638 474.619 49.5859H474.62L474.159 49.7773C474.379 50.3072 474.5 50.8889 474.5 51.5V53.25H475V56.75H474.5V60.25H475V63.75H474.5V67.25H475V70.75H474.5V72.5C474.5 73.1111 474.379 73.6928 474.159 74.2227L474.619 74.4131C474.112 75.6355 473.135 76.6123 471.913 77.1191L471.723 76.6592C471.193 76.8789 470.611 77 470 77H468.022V77.5H464.068V77H460.113V77.5H456.159V77H452.204V77.5H448.25V77H444.296V77.5H440.341V77H436.387V77.5H432.432V77H428.478V77.5H424.522V77H420.568V77.5H416.613V77H412.659V77.5H408.704V77H404.75V77.5H400.796V77H396.841V77.5H392.887V77H388.932V77.5H384.978V77H383.5V75.5625H382.5V77H380.75V77.5H376.25V77H371.75V77.5H367.25V77H362.75V77.5H358.25V77H356C355.389 77 354.807 76.8789 354.277 76.6592L354.086 77.1191C352.864 76.6122 351.887 75.6353 351.38 74.4131L351.841 74.2227C351.621 73.6928 351.5 73.1111 351.5 72.5V70.75H351V67.25H351.5V63.75H351V60.25H351.5V56.75H351V53.25H351.5V51.5C351.5 50.8889 351.621 50.3072 351.841 49.7773L351.38 49.5859C351.882 48.3746 352.847 47.4031 354.054 46.8926L354.086 46.8799L354.277 47.3408C354.807 47.1211 355.389 47 356 47H358.25V46.5H362.75V47H367.25V46.5H371.75V47H376.25V46.5H380.75V47H382.5V48.4375H383.5V47H384.978V46.5H388.932V47H392.887V46.5H396.841V47H400.796V46.5H404.75V47H408.704V46.5H412.659V47H416.613V46.5H420.568V47H424.522V46.5H428.478V47H432.432V46.5H436.387V47H440.341V46.5H444.296V47H448.25V46.5H452.204V47H456.159V46.5H460.113V47H464.068V46.5H468.022V47H470C470.611 47 471.193 47.1211 471.723 47.3408L471.913 46.8799ZM382.5 67.8125V71.6875H383.5V67.8125H382.5ZM382.5 60.0625V63.9375H383.5V60.0625H382.5ZM382.5 52.3125V56.1875H383.5V52.3125H382.5Z" stroke="#2D2D2D" stroke-dasharray="4 4"/>
<path d="M392.91 65.5V58.2812H395.145C395.573 58.2812 395.949 58.3702 396.272 58.5482C396.595 58.7196 396.845 58.9602 397.023 59.2701C397.201 59.5799 397.29 59.9425 397.29 60.3578C397.29 60.8457 397.162 61.2643 396.905 61.6137C396.654 61.9631 396.311 62.2037 395.876 62.3356L397.389 65.5H396.341L394.957 62.4345H393.8V65.5H392.91ZM393.8 61.6335H395.145C395.514 61.6335 395.81 61.5181 396.035 61.2874C396.259 61.0501 396.371 60.7402 396.371 60.3578C396.371 59.9689 396.259 59.659 396.035 59.4283C395.81 59.1976 395.514 59.0822 395.145 59.0822H393.8V61.6335Z" fill="white"/>
<path d="M400.886 65.5989C400.26 65.5989 399.759 65.4143 399.383 65.0451C399.007 64.6693 398.819 64.1617 398.819 63.5223V60.0612H399.709V63.5223C399.709 63.931 399.815 64.2507 400.026 64.4815C400.237 64.7056 400.524 64.8177 400.886 64.8177C401.255 64.8177 401.545 64.7056 401.756 64.4815C401.974 64.2507 402.083 63.931 402.083 63.5223V60.0612H402.973V63.5223C402.973 64.1617 402.781 64.6693 402.399 65.0451C402.017 65.4143 401.512 65.5989 400.886 65.5989Z" fill="white"/>
<path d="M406.657 65.5791C406.288 65.5791 405.965 65.5231 405.688 65.411C405.418 65.2923 405.2 65.1275 405.036 64.9166C404.877 64.7056 404.782 64.4551 404.749 64.165H405.639C405.678 64.3562 405.784 64.5078 405.955 64.6199C406.133 64.732 406.367 64.788 406.657 64.788H407.073C407.422 64.788 407.682 64.7188 407.854 64.5803C408.025 64.4353 408.111 64.2441 408.111 64.0068C408.111 63.7761 408.032 63.5948 407.874 63.4629C407.722 63.3245 407.495 63.2322 407.191 63.186L406.46 63.0674C405.926 62.9751 405.527 62.8103 405.263 62.5729C405.006 62.329 404.877 61.9763 404.877 61.5148C404.877 61.027 405.032 60.6512 405.342 60.3875C405.652 60.1172 406.117 59.9821 406.736 59.9821H407.112C407.633 59.9821 408.052 60.104 408.368 60.348C408.684 60.5919 408.876 60.9215 408.942 61.3368H408.052C408.012 61.1654 407.913 61.0303 407.755 60.9314C407.597 60.8259 407.382 60.7732 407.112 60.7732H406.736C406.4 60.7732 406.153 60.8358 405.995 60.9611C405.843 61.0863 405.767 61.2742 405.767 61.5247C405.767 61.7489 405.833 61.9137 405.965 62.0192C406.097 62.1246 406.305 62.2005 406.588 62.2466L407.32 62.3653C407.907 62.4576 408.332 62.629 408.595 62.8795C408.866 63.13 409.001 63.4926 409.001 63.9672C409.001 64.4683 408.839 64.8638 408.516 65.1539C408.2 65.4374 407.719 65.5791 407.073 65.5791H406.657Z" fill="white"/>
<path d="M413.348 65.5C412.88 65.5 412.514 65.3747 412.25 65.1242C411.993 64.8737 411.865 64.521 411.865 64.0661V60.8721H410.332V60.0612H411.865V58.5284H412.755V60.0612H414.93V60.8721H412.755V64.0661C412.755 64.4815 412.953 64.6891 413.348 64.6891H414.831V65.5H413.348Z" fill="white"/>
<path d="M356 88.5C353.239 88.5 351 90.7386 351 93.5V114.5C351 117.261 353.239 119.5 356 119.5H383V88.5H356Z" fill="#EEBB39"/>
<path d="M470 119.5C472.761 119.5 475 117.261 475 114.5V93.5C475 90.7386 472.761 88.5 470 88.5H383V119.5H470Z" fill="#131313"/>
<path d="M471.913 88.8799C473.135 89.3866 474.112 90.3638 474.619 91.5859H474.62L474.159 91.7773C474.379 92.3072 474.5 92.8889 474.5 93.5V95.25H475V98.75H474.5V102.25H475V105.75H474.5V109.25H475V112.75H474.5V114.5C474.5 115.111 474.379 115.693 474.159 116.223L474.619 116.413C474.112 117.635 473.135 118.612 471.913 119.119L471.723 118.659C471.193 118.879 470.611 119 470 119H468.022V119.5H464.068V119H460.113V119.5H456.159V119H452.204V119.5H448.25V119H444.296V119.5H440.341V119H436.387V119.5H432.432V119H428.478V119.5H424.522V119H420.568V119.5H416.613V119H412.659V119.5H408.704V119H404.75V119.5H400.796V119H396.841V119.5H392.887V119H388.932V119.5H384.978V119H383.5V117.562H382.5V119H380.75V119.5H376.25V119H371.75V119.5H367.25V119H362.75V119.5H358.25V119H356C355.389 119 354.807 118.879 354.277 118.659L354.086 119.119C352.864 118.612 351.887 117.635 351.38 116.413L351.841 116.223C351.621 115.693 351.5 115.111 351.5 114.5V112.75H351V109.25H351.5V105.75H351V102.25H351.5V98.75H351V95.25H351.5V93.5C351.5 92.8889 351.621 92.3072 351.841 91.7773L351.38 91.5859C351.882 90.3746 352.847 89.4031 354.054 88.8926L354.086 88.8799L354.277 89.3408C354.807 89.1211 355.389 89 356 89H358.25V88.5H362.75V89H367.25V88.5H371.75V89H376.25V88.5H380.75V89H382.5V90.4375H383.5V89H384.978V88.5H388.932V89H392.887V88.5H396.841V89H400.796V88.5H404.75V89H408.704V88.5H412.659V89H416.613V88.5H420.568V89H424.522V88.5H428.478V89H432.432V88.5H436.387V89H440.341V88.5H444.296V89H448.25V88.5H452.204V89H456.159V88.5H460.113V89H464.068V88.5H468.022V89H470C470.611 89 471.193 89.1211 471.723 89.3408L471.913 88.8799ZM382.5 109.812V113.688H383.5V109.812H382.5ZM382.5 102.062V105.938H383.5V102.062H382.5ZM382.5 94.3125V98.1875H383.5V94.3125H382.5Z" stroke="#2D2D2D" stroke-dasharray="4 4"/>
<path d="M394.67 107.599C393.978 107.599 393.434 107.404 393.038 107.015C392.643 106.626 392.445 106.096 392.445 105.423H393.335C393.335 105.865 393.45 106.208 393.681 106.452C393.918 106.689 394.248 106.808 394.67 106.808C395.092 106.808 395.418 106.689 395.649 106.452C395.886 106.208 396.005 105.865 396.005 105.423V101.092H394.274V100.281H396.895V105.423C396.895 106.096 396.694 106.626 396.292 107.015C395.896 107.404 395.356 107.599 394.67 107.599Z" fill="white"/>
<path d="M400.421 107.599C399.848 107.599 399.396 107.454 399.067 107.164C398.737 106.867 398.572 106.468 398.572 105.967C398.572 105.46 398.737 105.061 399.067 104.771C399.396 104.481 399.841 104.336 400.402 104.336H402.083V103.792C402.083 103.455 401.98 103.198 401.776 103.02C401.578 102.836 401.295 102.744 400.926 102.744C400.603 102.744 400.332 102.813 400.115 102.951C399.897 103.083 399.772 103.264 399.739 103.495H398.849C398.908 103.027 399.129 102.655 399.512 102.378C399.894 102.101 400.372 101.962 400.945 101.962C401.572 101.962 402.066 102.124 402.429 102.447C402.791 102.77 402.973 103.208 402.973 103.762V107.5H402.102V106.462H401.954L402.102 106.313C402.102 106.709 401.948 107.022 401.638 107.253C401.334 107.484 400.929 107.599 400.421 107.599ZM400.639 106.897C401.061 106.897 401.407 106.791 401.677 106.58C401.948 106.369 402.083 106.099 402.083 105.769V104.998H400.421C400.125 104.998 399.891 105.081 399.719 105.245C399.548 105.41 399.462 105.634 399.462 105.918C399.462 106.221 399.564 106.462 399.769 106.64C399.98 106.811 400.27 106.897 400.639 106.897Z" fill="white"/>
<path d="M406.222 107.5L404.403 102.061H405.312L406.519 105.72C406.591 105.938 406.657 106.149 406.717 106.353C406.776 106.551 406.819 106.706 406.845 106.818C406.878 106.706 406.924 106.551 406.984 106.353C407.043 106.149 407.106 105.938 407.172 105.72L408.348 102.061H409.248L407.429 107.5H406.222Z" fill="white"/>
<path d="M412.28 107.599C411.707 107.599 411.255 107.454 410.925 107.164C410.596 106.867 410.431 106.468 410.431 105.967C410.431 105.46 410.596 105.061 410.925 104.771C411.255 104.481 411.7 104.336 412.26 104.336H413.941V103.792C413.941 103.455 413.839 103.198 413.635 103.02C413.437 102.836 413.154 102.744 412.784 102.744C412.461 102.744 412.191 102.813 411.974 102.951C411.756 103.083 411.631 103.264 411.598 103.495H410.708C410.767 103.027 410.988 102.655 411.37 102.378C411.753 102.101 412.231 101.962 412.804 101.962C413.431 101.962 413.925 102.124 414.288 102.447C414.65 102.77 414.831 103.208 414.831 103.762V107.5H413.961V106.462H413.813L413.961 106.313C413.961 106.709 413.806 107.022 413.496 107.253C413.193 107.484 412.788 107.599 412.28 107.599ZM412.498 106.897C412.92 106.897 413.266 106.791 413.536 106.58C413.806 106.369 413.941 106.099 413.941 105.769V104.998H412.28C411.983 104.998 411.749 105.081 411.578 105.245C411.407 105.41 411.321 105.634 411.321 105.918C411.321 106.221 411.423 106.462 411.627 106.64C411.838 106.811 412.129 106.897 412.498 106.897Z" fill="white"/>
<path d="M418.724 107.599C418.249 107.599 417.84 107.52 417.498 107.362C417.161 107.203 416.901 106.976 416.716 106.679C416.532 106.383 416.436 106.03 416.43 105.621H417.32C417.32 105.984 417.442 106.27 417.685 106.481C417.936 106.692 418.282 106.798 418.724 106.798C419.139 106.798 419.462 106.696 419.693 106.491C419.93 106.287 420.049 106.003 420.049 105.641C420.049 105.351 419.97 105.097 419.812 104.879C419.66 104.662 419.439 104.51 419.149 104.425L418.17 104.118C417.676 103.966 417.293 103.713 417.023 103.357C416.759 103.001 416.627 102.582 416.627 102.101C416.627 101.712 416.713 101.376 416.884 101.092C417.062 100.802 417.31 100.578 417.626 100.42C417.943 100.255 418.315 100.172 418.744 100.172C419.376 100.172 419.884 100.35 420.266 100.706C420.649 101.056 420.843 101.524 420.85 102.111H419.96C419.96 101.755 419.851 101.478 419.634 101.28C419.423 101.076 419.123 100.973 418.734 100.973C418.351 100.973 418.051 101.066 417.834 101.25C417.623 101.435 417.517 101.692 417.517 102.022C417.517 102.318 417.596 102.575 417.755 102.793C417.913 103.011 418.14 103.165 418.437 103.258L419.426 103.574C419.907 103.726 420.28 103.983 420.543 104.345C420.807 104.708 420.939 105.133 420.939 105.621C420.939 106.017 420.847 106.363 420.662 106.659C420.477 106.956 420.217 107.187 419.881 107.352C419.551 107.516 419.165 107.599 418.724 107.599Z" fill="white"/>
<path d="M424.653 107.599C424.218 107.599 423.836 107.516 423.506 107.352C423.183 107.187 422.932 106.95 422.754 106.64C422.576 106.323 422.487 105.951 422.487 105.522V104.039C422.487 103.604 422.576 103.231 422.754 102.922C422.932 102.612 423.183 102.374 423.506 102.21C423.836 102.045 424.218 101.962 424.653 101.962C425.279 101.962 425.784 102.13 426.166 102.467C426.548 102.803 426.75 103.261 426.769 103.841H425.879C425.86 103.492 425.741 103.225 425.523 103.04C425.312 102.849 425.022 102.753 424.653 102.753C424.264 102.753 423.954 102.865 423.724 103.09C423.493 103.307 423.377 103.62 423.377 104.029V105.522C423.377 105.931 423.493 106.247 423.724 106.472C423.954 106.696 424.264 106.808 424.653 106.808C425.022 106.808 425.312 106.712 425.523 106.521C425.741 106.33 425.86 106.063 425.879 105.72H426.769C426.75 106.3 426.548 106.758 426.166 107.095C425.784 107.431 425.279 107.599 424.653 107.599Z" fill="white"/>
<path d="M428.674 107.5V102.061H429.544V103.1H429.752L429.465 103.742C429.465 103.156 429.59 102.714 429.841 102.417C430.098 102.114 430.477 101.962 430.978 101.962C431.552 101.962 432.007 102.144 432.343 102.506C432.686 102.862 432.857 103.347 432.857 103.96V104.286H431.967V104.039C431.967 103.61 431.861 103.284 431.651 103.06C431.446 102.829 431.153 102.714 430.77 102.714C430.395 102.714 430.098 102.829 429.88 103.06C429.669 103.291 429.564 103.617 429.564 104.039V107.5H428.674Z" fill="white"/>
<path d="M434.346 107.5V106.689H436.275V102.872H434.593V102.061H437.165V106.689H438.994V107.5H434.346ZM436.621 101.082C436.403 101.082 436.232 101.026 436.106 100.914C435.981 100.802 435.919 100.65 435.919 100.459C435.919 100.261 435.981 100.107 436.106 99.9944C436.232 99.8758 436.403 99.8164 436.621 99.8164C436.838 99.8164 437.01 99.8758 437.135 99.9944C437.26 100.107 437.323 100.261 437.323 100.459C437.323 100.65 437.26 100.802 437.135 100.914C437.01 101.026 436.838 101.082 436.621 101.082Z" fill="white"/>
<path d="M440.345 109.28V102.061H441.235V103.1H441.413L441.235 103.307C441.235 102.892 441.37 102.566 441.64 102.328C441.917 102.084 442.28 101.962 442.728 101.962C443.275 101.962 443.71 102.144 444.033 102.506C444.363 102.862 444.528 103.353 444.528 103.98V105.572C444.528 105.987 444.452 106.346 444.3 106.65C444.155 106.953 443.948 107.187 443.677 107.352C443.414 107.516 443.097 107.599 442.728 107.599C442.286 107.599 441.927 107.477 441.65 107.233C441.373 106.989 441.235 106.663 441.235 106.254L441.413 106.462H441.215L441.235 107.698V109.28H440.345ZM442.431 106.828C442.807 106.828 443.101 106.715 443.312 106.491C443.529 106.267 443.638 105.944 443.638 105.522V104.039C443.638 103.617 443.529 103.294 443.312 103.07C443.101 102.846 442.807 102.734 442.431 102.734C442.069 102.734 441.779 102.849 441.561 103.08C441.344 103.31 441.235 103.63 441.235 104.039V105.522C441.235 105.931 441.344 106.251 441.561 106.481C441.779 106.712 442.069 106.828 442.431 106.828Z" fill="white"/>
<path d="M448.924 107.5C448.456 107.5 448.091 107.375 447.827 107.124C447.57 106.874 447.441 106.521 447.441 106.066V102.872H445.908V102.061H447.441V100.528H448.331V102.061H450.507V102.872H448.331V106.066C448.331 106.481 448.529 106.689 448.924 106.689H450.408V107.5H448.924Z" fill="white"/>
<path d="M356 130.5C353.239 130.5 351 132.739 351 135.5V156.5C351 159.261 353.239 161.5 356 161.5H383V130.5H356Z" fill="#5576E0" fill-opacity="0.99"/>
<path d="M470 161.5C472.761 161.5 475 159.261 475 156.5V135.5C475 132.739 472.761 130.5 470 130.5H383V161.5H470Z" fill="#131313"/>
<path d="M471.913 130.88C473.135 131.387 474.112 132.364 474.619 133.586H474.62L474.159 133.777C474.379 134.307 474.5 134.889 474.5 135.5V137.25H475V140.75H474.5V144.25H475V147.75H474.5V151.25H475V154.75H474.5V156.5C474.5 157.111 474.379 157.693 474.159 158.223L474.619 158.413C474.112 159.635 473.135 160.612 471.913 161.119L471.723 160.659C471.193 160.879 470.611 161 470 161H468.022V161.5H464.068V161H460.113V161.5H456.159V161H452.204V161.5H448.25V161H444.296V161.5H440.341V161H436.387V161.5H432.432V161H428.478V161.5H424.522V161H420.568V161.5H416.613V161H412.659V161.5H408.704V161H404.75V161.5H400.796V161H396.841V161.5H392.887V161H388.932V161.5H384.978V161H383.5V159.562H382.5V161H380.75V161.5H376.25V161H371.75V161.5H367.25V161H362.75V161.5H358.25V161H356C355.389 161 354.807 160.879 354.277 160.659L354.086 161.119C352.864 160.612 351.887 159.635 351.38 158.413L351.841 158.223C351.621 157.693 351.5 157.111 351.5 156.5V154.75H351V151.25H351.5V147.75H351V144.25H351.5V140.75H351V137.25H351.5V135.5C351.5 134.889 351.621 134.307 351.841 133.777L351.38 133.586C351.882 132.375 352.847 131.403 354.054 130.893L354.086 130.88L354.277 131.341C354.807 131.121 355.389 131 356 131H358.25V130.5H362.75V131H367.25V130.5H371.75V131H376.25V130.5H380.75V131H382.5V132.438H383.5V131H384.978V130.5H388.932V131H392.887V130.5H396.841V131H400.796V130.5H404.75V131H408.704V130.5H412.659V131H416.613V130.5H420.568V131H424.522V130.5H428.478V131H432.432V130.5H436.387V131H440.341V130.5H444.296V131H448.25V130.5H452.204V131H456.159V130.5H460.113V131H464.068V130.5H468.022V131H470C470.611 131 471.193 131.121 471.723 131.341L471.913 130.88ZM382.5 151.812V155.688H383.5V151.812H382.5ZM382.5 144.062V147.938H383.5V144.062H382.5ZM382.5 136.312V140.188H383.5V136.312H382.5Z" stroke="#2D2D2D" stroke-dasharray="4 4"/>
<path d="M333.913 23.8799C335.135 24.3866 336.112 25.3638 336.619 26.5859H336.62L336.159 26.7773C336.379 27.3072 336.5 27.8889 336.5 28.5V30.5H337V34.5H336.5V38.5H337V42.5H336.5V46.5H337V50.5H336.5V54.5H337V58.5H336.5V62.5H337V66.5H336.5V70.5H337V74.5H336.5V78.5H337V82.5H336.5V86.5H337V90.5H336.5V94.5H337V98.5H336.5V102.5H337V106.5H336.5V110.5H337V114.5H336.5V118.5H337V122.5H336.5V126.5H337V130.5H336.5V134.5H337V138.5H336.5V142.5H337V146.5H336.5V150.5H337V154.5H336.5V156.5C336.5 157.111 336.379 157.693 336.159 158.223L336.619 158.413C336.112 159.635 335.135 160.612 333.913 161.119L333.723 160.659C333.193 160.879 332.611 161 332 161H330V161.5H326V161H322V161.5H318V161H314V161.5H310V161H306V161.5H302V161H298V161.5H294V161H290V161.5H286V161H282V161.5H278V161H274V161.5H270V161H266V161.5H262V161H258V161.5H254V161H250V161.5H246V161H242V161.5H238V161H234V161.5H230V161H226V161.5H222V161H218V161.5H214V161H210V161.5H206V161H202V161.5H198V161H194V161.5H190V161H186V161.5H182V161H178V161.5H174V161H170V161.5H166V161H162V161.5H158V161H156C155.389 161 154.807 160.879 154.277 160.659L154.086 161.119C152.864 160.612 151.887 159.635 151.38 158.413L151.841 158.223C151.621 157.693 151.5 157.111 151.5 156.5V154.5H151V150.5H151.5V146.5H151V142.5H151.5V138.5H151V134.5H151.5V130.5H151V126.5H151.5V122.5H151V118.5H151.5V114.5H151V110.5H151.5V106.5H151V102.5H151.5V98.5H151V94.5H151.5V90.5H151V86.5H151.5V82.5H151V78.5H151.5V74.5H151V70.5H151.5V66.5H151V62.5H151.5V58.5H151V54.5H151.5V50.5H151V46.5H151.5V42.5H151V38.5H151.5V34.5H151V30.5H151.5V28.5C151.5 27.8889 151.621 27.3072 151.841 26.7773L151.38 26.5859C151.882 25.3746 152.847 24.4031 154.054 23.8926L154.086 23.8799L154.277 24.3408C154.807 24.1211 155.389 24 156 24H158V23.5H162V24H166V23.5H170V24H174V23.5H178V24H182V23.5H186V24H190V23.5H194V24H198V23.5H202V24H206V23.5H210V24H214V23.5H218V24H222V23.5H226V24H230V23.5H234V24H238V23.5H242V24H246V23.5H250V24H254V23.5H258V24H262V23.5H266V24H270V23.5H274V24H278V23.5H282V24H286V23.5H290V24H294V23.5H298V24H302V23.5H306V24H310V23.5H314V24H318V23.5H322V24H326V23.5H330V24H332C332.611 24 333.193 24.1211 333.723 24.3408L333.913 23.8799Z" stroke="#2D2D2D" stroke-dasharray="4 4"/>
<path d="M392.91 149.5V142.281H395.234C395.682 142.281 396.071 142.37 396.4 142.548C396.73 142.72 396.984 142.964 397.162 143.28C397.347 143.596 397.439 143.972 397.439 144.407C397.439 144.836 397.347 145.212 397.162 145.535C396.984 145.851 396.73 146.098 396.4 146.276C396.071 146.448 395.682 146.533 395.234 146.533H393.8V149.5H392.91ZM393.8 145.732H395.234C395.623 145.732 395.932 145.614 396.163 145.376C396.4 145.132 396.519 144.809 396.519 144.407C396.519 143.999 396.4 143.676 396.163 143.438C395.932 143.201 395.623 143.082 395.234 143.082H393.8V145.732Z" fill="white"/>
<path d="M399.69 151.28L400.491 149.164L398.473 144.061H399.462L400.728 147.423C400.774 147.535 400.817 147.671 400.856 147.829C400.896 147.98 400.929 148.109 400.955 148.214C400.982 148.109 401.015 147.98 401.054 147.829C401.094 147.671 401.133 147.535 401.173 147.423L402.36 144.061H403.319L400.639 151.28H399.69Z" fill="white"/>
<path d="M407.419 149.5C406.951 149.5 406.585 149.375 406.321 149.124C406.064 148.874 405.935 148.521 405.935 148.066V144.872H404.403V144.061H405.935V142.528H406.825V144.061H409.001V144.872H406.825V148.066C406.825 148.481 407.023 148.689 407.419 148.689H408.902V149.5H407.419Z" fill="white"/>
<path d="M410.698 149.5V142.281H411.588V145.099H411.776L411.588 145.307C411.588 144.879 411.716 144.549 411.974 144.318C412.231 144.081 412.587 143.962 413.042 143.962C413.589 143.962 414.024 144.13 414.347 144.467C414.67 144.803 414.831 145.261 414.831 145.841V149.5H413.941V145.94C413.941 145.551 413.836 145.251 413.625 145.04C413.421 144.823 413.14 144.714 412.784 144.714C412.415 144.714 412.122 144.829 411.904 145.06C411.693 145.291 411.588 145.617 411.588 146.039V149.5H410.698Z" fill="white"/>
<path d="M418.684 149.579C418.249 149.579 417.873 149.497 417.557 149.332C417.24 149.167 416.993 148.93 416.815 148.62C416.644 148.303 416.558 147.931 416.558 147.502V146.059C416.558 145.624 416.644 145.251 416.815 144.941C416.993 144.631 417.24 144.394 417.557 144.229C417.873 144.064 418.249 143.982 418.684 143.982C419.119 143.982 419.495 144.064 419.811 144.229C420.128 144.394 420.372 144.631 420.543 144.941C420.721 145.251 420.81 145.62 420.81 146.049V147.502C420.81 147.931 420.721 148.303 420.543 148.62C420.372 148.93 420.128 149.167 419.811 149.332C419.495 149.497 419.119 149.579 418.684 149.579ZM418.684 148.788C419.073 148.788 419.376 148.679 419.594 148.462C419.811 148.244 419.92 147.924 419.92 147.502V146.059C419.92 145.637 419.811 145.317 419.594 145.099C419.376 144.882 419.073 144.773 418.684 144.773C418.302 144.773 417.999 144.882 417.774 145.099C417.557 145.317 417.448 145.637 417.448 146.059V147.502C417.448 147.924 417.557 148.244 417.774 148.462C417.999 148.679 418.302 148.788 418.684 148.788Z" fill="white"/>
<path d="M422.557 149.5V144.061H423.447V145.099H423.635L423.447 145.307C423.447 144.879 423.575 144.549 423.832 144.318C424.089 144.081 424.445 143.962 424.9 143.962C425.448 143.962 425.883 144.13 426.206 144.467C426.529 144.803 426.69 145.261 426.69 145.841V149.5H425.8V145.94C425.8 145.551 425.695 145.254 425.484 145.05C425.279 144.839 424.999 144.734 424.643 144.734C424.274 144.734 423.981 144.846 423.763 145.07C423.552 145.294 423.447 145.617 423.447 146.039V149.5H422.557Z" fill="white"/>
<path d="M25.2142 159.28C24.6538 159.28 24.1659 159.162 23.7505 158.924C23.3351 158.693 23.0121 158.36 22.7813 157.925C22.5571 157.497 22.445 156.992 22.445 156.412V153.05C22.445 152.456 22.5505 151.945 22.7615 151.517C22.9791 151.088 23.2857 150.758 23.6813 150.528C24.0835 150.297 24.5615 150.181 25.1153 150.181C25.6164 150.181 26.0483 150.28 26.4109 150.478C26.7736 150.669 27.0505 150.946 27.2417 151.309C27.4395 151.671 27.5384 152.103 27.5384 152.604V156.857H26.8362V156.313H26.5593L26.7472 156.115C26.7472 156.366 26.6516 156.57 26.4604 156.729C26.2692 156.88 26.0153 156.956 25.6988 156.956C25.2703 156.956 24.9406 156.827 24.7098 156.57C24.4857 156.307 24.3736 155.924 24.3736 155.423V154.236C24.3736 153.735 24.4857 153.356 24.7098 153.099C24.9406 152.835 25.2703 152.703 25.6988 152.703C26.0153 152.703 26.2692 152.782 26.4604 152.941C26.6516 153.092 26.7472 153.297 26.7472 153.554L26.6087 153.346H26.8461L26.7472 152.654V152.604C26.7472 152.229 26.6846 151.912 26.5593 151.655C26.434 151.398 26.2494 151.203 26.0054 151.072C25.7681 150.94 25.4714 150.874 25.1153 150.874C24.5219 150.874 24.0604 151.065 23.7307 151.447C23.4011 151.83 23.2362 152.364 23.2362 153.05V156.412C23.2362 157.071 23.411 157.589 23.7604 157.965C24.1164 158.347 24.6011 158.538 25.2142 158.538H25.9065V159.28H25.2142ZM25.956 156.333C26.2263 156.333 26.4241 156.251 26.5494 156.086C26.6813 155.921 26.7472 155.667 26.7472 155.324V154.226C26.7472 153.917 26.6813 153.689 26.5494 153.544C26.4241 153.399 26.2263 153.326 25.956 153.326C25.6923 153.326 25.4945 153.402 25.3626 153.554C25.2307 153.699 25.1648 153.926 25.1648 154.236V155.423C25.1648 155.733 25.2307 155.964 25.3626 156.115C25.4945 156.26 25.6923 156.333 25.956 156.333Z" fill="white"/>
<path d="M30.4521 157.5V151.081H28.4741V150.27H33.3202V151.081H31.3422V157.5H30.4521Z" fill="white"/>
<path d="M34.7701 157.5V150.28H35.6602V153.099H35.8482L35.6602 153.307C35.6602 152.878 35.7888 152.548 36.046 152.318C36.3031 152.08 36.6591 151.962 37.1141 151.962C37.6613 151.962 38.0965 152.13 38.4196 152.466C38.7426 152.802 38.9042 153.26 38.9042 153.841V157.5H38.0141V153.94C38.0141 153.551 37.9086 153.251 37.6976 153.04C37.4932 152.822 37.213 152.713 36.8569 152.713C36.4877 152.713 36.1943 152.829 35.9767 153.059C35.7657 153.29 35.6602 153.617 35.6602 154.039V157.5H34.7701Z" fill="white"/>
<path d="M42.7574 157.599C42.3288 157.599 41.953 157.513 41.6299 157.342C41.3135 157.17 41.0662 156.93 40.8882 156.62C40.7168 156.303 40.631 155.937 40.631 155.522V154.039C40.631 153.617 40.7168 153.251 40.8882 152.941C41.0662 152.631 41.3135 152.39 41.6299 152.219C41.953 152.047 42.3288 151.962 42.7574 151.962C43.186 151.962 43.5585 152.047 43.875 152.219C44.198 152.39 44.4453 152.631 44.6167 152.941C44.7947 153.251 44.8837 153.617 44.8837 154.039V154.998H41.5014V155.522C41.5014 155.951 41.6102 156.28 41.8277 156.511C42.0453 156.735 42.3552 156.847 42.7574 156.847C43.1003 156.847 43.3772 156.788 43.5882 156.669C43.7991 156.544 43.9277 156.359 43.9739 156.115H44.864C44.8046 156.57 44.5805 156.933 44.1915 157.203C43.809 157.467 43.331 157.599 42.7574 157.599ZM44.0134 154.404V154.039C44.0134 153.61 43.9046 153.28 43.6871 153.05C43.4761 152.819 43.1662 152.703 42.7574 152.703C42.3552 152.703 42.0453 152.819 41.8277 153.05C41.6102 153.28 41.5014 153.61 41.5014 154.039V154.325H44.0827L44.0134 154.404Z" fill="white"/>
<path d="M46.6304 157.5V150.28H48.9546C49.4029 150.28 49.7919 150.369 50.1216 150.547C50.4513 150.719 50.7051 150.963 50.8831 151.279C51.0677 151.596 51.16 151.971 51.16 152.407C51.16 152.835 51.0677 153.211 50.8831 153.534C50.7051 153.851 50.4513 154.098 50.1216 154.276C49.7919 154.447 49.4029 154.533 48.9546 154.533H47.5205V157.5H46.6304ZM47.5205 153.732H48.9546C49.3436 153.732 49.6535 153.613 49.8842 153.376C50.1216 153.132 50.2403 152.809 50.2403 152.407C50.2403 151.998 50.1216 151.675 49.8842 151.437C49.6535 151.2 49.3436 151.081 48.9546 151.081H47.5205V153.732Z" fill="white"/>
<path d="M52.7485 157.5V152.061H53.6188V153.099H53.8265L53.5397 153.742C53.5397 153.155 53.6649 152.713 53.9155 152.417C54.1726 152.113 54.5517 151.962 55.0528 151.962C55.6265 151.962 56.0814 152.143 56.4177 152.506C56.7605 152.862 56.9319 153.346 56.9319 153.959V154.286H56.0418V154.039C56.0418 153.61 55.9363 153.284 55.7254 153.059C55.521 152.829 55.2276 152.713 54.8451 152.713C54.4693 152.713 54.1726 152.829 53.955 153.059C53.7441 153.29 53.6386 153.617 53.6386 154.039V157.5H52.7485Z" fill="white"/>
<path d="M60.5478 157.579C60.1126 157.579 59.7368 157.497 59.4203 157.332C59.1039 157.167 58.8566 156.93 58.6786 156.62C58.5072 156.303 58.4215 155.931 58.4215 155.502V154.058C58.4215 153.623 58.5072 153.251 58.6786 152.941C58.8566 152.631 59.1039 152.393 59.4203 152.229C59.7368 152.064 60.1126 151.981 60.5478 151.981C60.983 151.981 61.3588 152.064 61.6753 152.229C61.9917 152.393 62.2357 152.631 62.4071 152.941C62.5852 153.251 62.6742 153.62 62.6742 154.048V155.502C62.6742 155.931 62.5852 156.303 62.4071 156.62C62.2357 156.93 61.9917 157.167 61.6753 157.332C61.3588 157.497 60.983 157.579 60.5478 157.579ZM60.5478 156.788C60.9368 156.788 61.2401 156.679 61.4577 156.462C61.6753 156.244 61.7841 155.924 61.7841 155.502V154.058C61.7841 153.636 61.6753 153.317 61.4577 153.099C61.2401 152.881 60.9368 152.773 60.5478 152.773C60.1654 152.773 59.8621 152.881 59.6379 153.099C59.4203 153.317 59.3116 153.636 59.3116 154.058V155.502C59.3116 155.924 59.4203 156.244 59.6379 156.462C59.8621 156.679 60.1654 156.788 60.5478 156.788Z" fill="white"/>
<path d="M64.3516 159.28V158.459H65.6274C66.0362 158.459 66.3527 158.347 66.5768 158.123C66.8076 157.905 66.923 157.596 66.923 157.193V152.871H64.6483V152.061H67.8131V157.193C67.8131 157.833 67.6153 158.341 67.2197 158.716C66.8241 159.092 66.2933 159.28 65.6274 159.28H64.3516ZM67.3186 151.081C67.101 151.081 66.9296 151.025 66.8043 150.913C66.679 150.801 66.6164 150.65 66.6164 150.458C66.6164 150.261 66.679 150.106 66.8043 149.993C66.9296 149.875 67.101 149.815 67.3186 149.815C67.5362 149.815 67.7076 149.875 67.8329 149.993C67.9582 150.106 68.0208 150.261 68.0208 150.458C68.0208 150.65 67.9582 150.801 67.8329 150.913C67.7076 151.025 67.5362 151.081 67.3186 151.081Z" fill="white"/>
<path d="M72.4081 157.599C71.9795 157.599 71.6037 157.513 71.2806 157.342C70.9641 157.17 70.7169 156.93 70.5389 156.62C70.3674 156.303 70.2817 155.937 70.2817 155.522V154.039C70.2817 153.617 70.3674 153.251 70.5389 152.941C70.7169 152.631 70.9641 152.39 71.2806 152.219C71.6037 152.047 71.9795 151.962 72.4081 151.962C72.8367 151.962 73.2092 152.047 73.5257 152.219C73.8487 152.39 74.096 152.631 74.2674 152.941C74.4454 153.251 74.5344 153.617 74.5344 154.039V154.998H71.1521V155.522C71.1521 155.951 71.2608 156.28 71.4784 156.511C71.696 156.735 72.0059 156.847 72.4081 156.847C72.7509 156.847 73.0279 156.788 73.2388 156.669C73.4498 156.544 73.5784 156.359 73.6246 156.115H74.5147C74.4553 156.57 74.2311 156.933 73.8421 157.203C73.4597 157.467 72.9817 157.599 72.4081 157.599ZM73.6641 154.404V154.039C73.6641 153.61 73.5553 153.28 73.3377 153.05C73.1268 152.819 72.8169 152.703 72.4081 152.703C72.0059 152.703 71.696 152.819 71.4784 153.05C71.2608 153.28 71.1521 153.61 71.1521 154.039V154.325H73.7333L73.6641 154.404Z" fill="white"/>
<path d="M78.3778 157.599C77.9426 157.599 77.5602 157.516 77.2305 157.352C76.9075 157.187 76.6569 156.949 76.4789 156.64C76.3009 156.323 76.2119 155.951 76.2119 155.522V154.039C76.2119 153.603 76.3009 153.231 76.4789 152.921C76.6569 152.611 76.9075 152.374 77.2305 152.209C77.5602 152.044 77.9426 151.962 78.3778 151.962C79.0042 151.962 79.5085 152.13 79.891 152.466C80.2734 152.802 80.4745 153.26 80.4942 153.841H79.6041C79.5844 153.491 79.4657 153.224 79.2481 153.04C79.0371 152.848 78.747 152.753 78.3778 152.753C77.9888 152.753 77.6789 152.865 77.4481 153.089C77.2174 153.307 77.102 153.62 77.102 154.029V155.522C77.102 155.931 77.2174 156.247 77.4481 156.471C77.6789 156.696 77.9888 156.808 78.3778 156.808C78.747 156.808 79.0371 156.712 79.2481 156.521C79.4657 156.33 79.5844 156.063 79.6041 155.72H80.4942C80.4745 156.3 80.2734 156.758 79.891 157.095C79.5085 157.431 79.0042 157.599 78.3778 157.599Z" fill="white"/>
<path d="M84.8618 157.5C84.3936 157.5 84.0277 157.375 83.764 157.124C83.5068 156.874 83.3783 156.521 83.3783 156.066V152.871H81.8453V152.061H83.3783V150.528H84.2684V152.061H86.4442V152.871H84.2684V156.066C84.2684 156.481 84.4662 156.689 84.8618 156.689H86.3453V157.5H84.8618Z" fill="white"/>
<path d="M89.7534 157.5V151.081H87.7754V150.27H92.6215V151.081H90.6435V157.5H89.7534Z" fill="white"/>
<path d="M95.6539 157.599C95.0803 157.599 94.6286 157.454 94.299 157.164C93.9693 156.867 93.8045 156.468 93.8045 155.967C93.8045 155.459 93.9693 155.06 94.299 154.77C94.6286 154.48 95.0737 154.335 95.6341 154.335H97.3154V153.791C97.3154 153.455 97.2132 153.198 97.0088 153.02C96.811 152.835 96.5275 152.743 96.1583 152.743C95.8352 152.743 95.5649 152.812 95.3473 152.951C95.1297 153.082 95.0045 153.264 94.9715 153.495H94.0814C94.1407 153.026 94.3616 152.654 94.744 152.377C95.1264 152.1 95.6045 151.962 96.1781 151.962C96.8045 151.962 97.2989 152.123 97.6616 152.446C98.0242 152.769 98.2055 153.208 98.2055 153.762V157.5H97.3352V156.462H97.1869L97.3352 156.313C97.3352 156.709 97.1803 157.022 96.8704 157.253C96.5671 157.484 96.1616 157.599 95.6539 157.599ZM95.8715 156.897C96.2935 156.897 96.6396 156.791 96.9099 156.58C97.1803 156.369 97.3154 156.099 97.3154 155.769V154.998H95.6539C95.3572 154.998 95.1231 155.08 94.9517 155.245C94.7803 155.41 94.6946 155.634 94.6946 155.918C94.6946 156.221 94.7968 156.462 95.0012 156.64C95.2122 156.811 95.5023 156.897 95.8715 156.897Z" fill="white"/>
<path d="M102.049 157.599C101.423 157.599 100.921 157.414 100.546 157.045C100.17 156.669 99.9819 156.162 99.9819 155.522V152.061H100.872V155.522C100.872 155.931 100.977 156.251 101.188 156.481C101.399 156.706 101.686 156.818 102.049 156.818C102.418 156.818 102.708 156.706 102.919 156.481C103.137 156.251 103.246 155.931 103.246 155.522V152.061H104.136V155.522C104.136 156.162 103.944 156.669 103.562 157.045C103.18 157.414 102.675 157.599 102.049 157.599Z" fill="white"/>
<path d="M106.614 159.28V158.469H108.345C108.622 158.469 108.823 158.407 108.948 158.281C109.08 158.156 109.146 157.962 109.146 157.698V157.006L109.166 156.017H108.988L109.156 155.868C109.156 156.264 109.024 156.577 108.76 156.808C108.497 157.038 108.144 157.154 107.702 157.154C107.142 157.154 106.7 156.973 106.377 156.61C106.054 156.241 105.892 155.746 105.892 155.126V153.979C105.892 153.359 106.054 152.868 106.377 152.506C106.7 152.143 107.142 151.962 107.702 151.962C108.144 151.962 108.497 152.077 108.76 152.308C109.024 152.539 109.156 152.852 109.156 153.247L108.988 153.099H109.156V152.061H110.036V157.698C110.036 158.186 109.884 158.571 109.581 158.855C109.284 159.138 108.869 159.28 108.335 159.28H106.614ZM107.969 156.382C108.338 156.382 108.628 156.267 108.839 156.036C109.05 155.806 109.156 155.486 109.156 155.077V154.039C109.156 153.63 109.05 153.31 108.839 153.079C108.628 152.848 108.338 152.733 107.969 152.733C107.593 152.733 107.3 152.845 107.089 153.069C106.885 153.293 106.782 153.617 106.782 154.039V155.077C106.782 155.499 106.885 155.822 107.089 156.046C107.3 156.27 107.593 156.382 107.969 156.382Z" fill="white"/>
<path d="M111.862 157.5V150.28H112.752V153.099H112.94L112.752 153.307C112.752 152.878 112.881 152.548 113.138 152.318C113.395 152.08 113.751 151.962 114.206 151.962C114.753 151.962 115.188 152.13 115.511 152.466C115.834 152.802 115.996 153.26 115.996 153.841V157.5H115.106V153.94C115.106 153.551 115 153.251 114.789 153.04C114.585 152.822 114.305 152.713 113.949 152.713C113.579 152.713 113.286 152.829 113.069 153.059C112.858 153.29 112.752 153.617 112.752 154.039V157.5H111.862Z" fill="white"/>
<path d="M120.443 157.5C119.974 157.5 119.609 157.375 119.345 157.124C119.088 156.874 118.959 156.521 118.959 156.066V152.871H117.426V152.061H118.959V150.528H119.849V152.061H122.025V152.871H119.849V156.066C119.849 156.481 120.047 156.689 120.443 156.689H121.926V157.5H120.443Z" fill="white"/>
<path d="M123.564 157.5V150.28H124.731L125.483 152.614C125.555 152.825 125.621 153.036 125.68 153.247C125.74 153.452 125.783 153.61 125.809 153.722C125.842 153.61 125.885 153.452 125.938 153.247C125.99 153.036 126.05 152.822 126.116 152.604L126.828 150.28H127.995V157.5H127.124V154.879C127.124 154.589 127.134 154.259 127.154 153.89C127.174 153.521 127.2 153.145 127.233 152.763C127.266 152.374 127.299 152.004 127.332 151.655C127.372 151.299 127.405 150.989 127.431 150.725L126.264 154.335H125.324L124.147 150.725C124.18 150.982 124.213 151.282 124.246 151.625C124.279 151.962 124.309 152.321 124.335 152.703C124.362 153.079 124.385 153.455 124.405 153.831C124.424 154.207 124.434 154.556 124.434 154.879V157.5H123.564Z" fill="white"/>
<path d="M131.709 157.599C131.281 157.599 130.905 157.513 130.582 157.342C130.266 157.17 130.018 156.93 129.84 156.62C129.669 156.303 129.583 155.937 129.583 155.522V154.039C129.583 153.617 129.669 153.251 129.84 152.941C130.018 152.631 130.266 152.39 130.582 152.219C130.905 152.047 131.281 151.962 131.709 151.962C132.138 151.962 132.511 152.047 132.827 152.219C133.15 152.39 133.397 152.631 133.569 152.941C133.747 153.251 133.836 153.617 133.836 154.039V154.998H130.453V155.522C130.453 155.951 130.562 156.28 130.78 156.511C130.997 156.735 131.307 156.847 131.709 156.847C132.052 156.847 132.329 156.788 132.54 156.669C132.751 156.544 132.88 156.359 132.926 156.115H133.816C133.757 156.57 133.533 156.933 133.144 157.203C132.761 157.467 132.283 157.599 131.709 157.599ZM132.965 154.404V154.039C132.965 153.61 132.857 153.28 132.639 153.05C132.428 152.819 132.118 152.703 131.709 152.703C131.307 152.703 130.997 152.819 130.78 153.05C130.562 153.28 130.453 153.61 130.453 154.039V154.325H133.035L132.965 154.404Z" fill="white"/>
<path d="M352.137 33.5V26.2803H353.027V32.689H356.291V33.5H352.137Z" fill="white"/>
<path d="M359.422 33.5989C358.849 33.5989 358.397 33.4539 358.067 33.1637C357.738 32.867 357.573 32.4681 357.573 31.9671C357.573 31.4594 357.738 31.0605 358.067 30.7704C358.397 30.4803 358.842 30.3352 359.403 30.3352H361.084V29.7913C361.084 29.455 360.982 29.1979 360.777 29.0198C360.58 28.8352 360.296 28.7429 359.927 28.7429C359.604 28.7429 359.333 28.8121 359.116 28.9506C358.898 29.0825 358.773 29.2638 358.74 29.4946H357.85C357.909 29.0264 358.13 28.6539 358.513 28.377C358.895 28.1001 359.373 27.9616 359.947 27.9616C360.573 27.9616 361.067 28.1231 361.43 28.4462C361.793 28.7693 361.974 29.2077 361.974 29.7616V33.5H361.104V32.4616H360.955L361.104 32.3132C361.104 32.7088 360.949 33.022 360.639 33.2528C360.336 33.4835 359.93 33.5989 359.422 33.5989ZM359.64 32.8967C360.062 32.8967 360.408 32.7912 360.678 32.5802C360.949 32.3692 361.084 32.0989 361.084 31.7693V30.9978H359.422C359.126 30.9978 358.892 31.0803 358.72 31.2451C358.549 31.4099 358.463 31.6341 358.463 31.9176C358.463 32.2209 358.565 32.4616 358.77 32.6396C358.981 32.811 359.271 32.8967 359.64 32.8967Z" fill="white"/>
<path d="M363.77 33.5V28.0605H364.66V29.099H364.848L364.66 29.3066C364.66 28.8781 364.789 28.5484 365.046 28.3176C365.303 28.0803 365.659 27.9616 366.114 27.9616C366.661 27.9616 367.097 28.1297 367.42 28.466C367.743 28.8023 367.904 29.2605 367.904 29.8407V33.5H367.014V29.9396C367.014 29.5506 366.909 29.2539 366.698 29.0495C366.493 28.8385 366.213 28.733 365.857 28.733C365.488 28.733 365.194 28.8451 364.977 29.0693C364.766 29.2935 364.66 29.6165 364.66 30.0385V33.5H363.77Z" fill="white"/>
<path d="M370.383 35.2802V34.4692H372.113C372.39 34.4692 372.591 34.4066 372.717 34.2813C372.849 34.156 372.915 33.9615 372.915 33.6978V33.0055L372.934 32.0165H372.756L372.924 31.8682C372.924 32.2638 372.793 32.5769 372.529 32.8077C372.265 33.0385 371.912 33.1539 371.471 33.1539C370.91 33.1539 370.468 32.9725 370.145 32.6099C369.822 32.2407 369.661 31.7462 369.661 31.1264V29.9792C369.661 29.3594 369.822 28.8682 370.145 28.5056C370.468 28.1429 370.91 27.9616 371.471 27.9616C371.912 27.9616 372.265 28.077 372.529 28.3078C372.793 28.5385 372.924 28.8517 372.924 29.2473L372.756 29.099H372.924V28.0605H373.805V33.6978C373.805 34.1857 373.653 34.5714 373.35 34.8549C373.053 35.1384 372.638 35.2802 372.104 35.2802H370.383ZM371.738 32.3824C372.107 32.3824 372.397 32.2671 372.608 32.0363C372.819 31.8055 372.924 31.4857 372.924 31.077V30.0385C372.924 29.6297 372.819 29.3099 372.608 29.0792C372.397 28.8484 372.107 28.733 371.738 28.733C371.362 28.733 371.068 28.8451 370.857 29.0693C370.653 29.2935 370.551 29.6165 370.551 30.0385V31.077C370.551 31.4989 370.653 31.822 370.857 32.0462C371.068 32.2703 371.362 32.3824 371.738 32.3824Z" fill="white"/>
<path d="M377.678 33.5989C377.051 33.5989 376.55 33.4143 376.174 33.0451C375.799 32.6692 375.611 32.1616 375.611 31.522V28.0605H376.501V31.522C376.501 31.9308 376.606 32.2506 376.817 32.4813C377.028 32.7055 377.315 32.8176 377.678 32.8176C378.047 32.8176 378.337 32.7055 378.548 32.4813C378.766 32.2506 378.874 31.9308 378.874 31.522V28.0605H379.764V31.522C379.764 32.1616 379.573 32.6692 379.191 33.0451C378.808 33.4143 378.304 33.5989 377.678 33.5989Z" fill="white"/>
<path d="M383.143 33.5989C382.569 33.5989 382.118 33.4539 381.788 33.1637C381.458 32.867 381.294 32.4681 381.294 31.9671C381.294 31.4594 381.458 31.0605 381.788 30.7704C382.118 30.4803 382.563 30.3352 383.123 30.3352H384.804V29.7913C384.804 29.455 384.702 29.1979 384.498 29.0198C384.3 28.8352 384.017 28.7429 383.647 28.7429C383.324 28.7429 383.054 28.8121 382.836 28.9506C382.619 29.0825 382.494 29.2638 382.461 29.4946H381.57C381.63 29.0264 381.851 28.6539 382.233 28.377C382.616 28.1001 383.094 27.9616 383.667 27.9616C384.294 27.9616 384.788 28.1231 385.151 28.4462C385.513 28.7693 385.695 29.2077 385.695 29.7616V33.5H384.824V32.4616H384.676L384.824 32.3132C384.824 32.7088 384.669 33.022 384.359 33.2528C384.056 33.4835 383.651 33.5989 383.143 33.5989ZM383.361 32.8967C383.783 32.8967 384.129 32.7912 384.399 32.5802C384.669 32.3692 384.804 32.0989 384.804 31.7693V30.9978H383.143C382.846 30.9978 382.612 31.0803 382.441 31.2451C382.269 31.4099 382.184 31.6341 382.184 31.9176C382.184 32.2209 382.286 32.4616 382.49 32.6396C382.701 32.811 382.991 32.8967 383.361 32.8967Z" fill="white"/>
<path d="M388.173 35.2802V34.4692H389.904C390.181 34.4692 390.382 34.4066 390.507 34.2813C390.639 34.156 390.705 33.9615 390.705 33.6978V33.0055L390.725 32.0165H390.547L390.715 31.8682C390.715 32.2638 390.583 32.5769 390.319 32.8077C390.056 33.0385 389.703 33.1539 389.261 33.1539C388.701 33.1539 388.259 32.9725 387.936 32.6099C387.613 32.2407 387.451 31.7462 387.451 31.1264V29.9792C387.451 29.3594 387.613 28.8682 387.936 28.5056C388.259 28.1429 388.701 27.9616 389.261 27.9616C389.703 27.9616 390.056 28.077 390.319 28.3078C390.583 28.5385 390.715 28.8517 390.715 29.2473L390.547 29.099H390.715V28.0605H391.595V33.6978C391.595 34.1857 391.443 34.5714 391.14 34.8549C390.843 35.1384 390.428 35.2802 389.894 35.2802H388.173ZM389.528 32.3824C389.897 32.3824 390.187 32.2671 390.398 32.0363C390.609 31.8055 390.715 31.4857 390.715 31.077V30.0385C390.715 29.6297 390.609 29.3099 390.398 29.0792C390.187 28.8484 389.897 28.733 389.528 28.733C389.152 28.733 388.859 28.8451 388.648 29.0693C388.443 29.2935 388.341 29.6165 388.341 30.0385V31.077C388.341 31.4989 388.443 31.822 388.648 32.0462C388.859 32.2703 389.152 32.3824 389.528 32.3824Z" fill="white"/>
<path d="M395.478 33.5989C395.049 33.5989 394.674 33.5132 394.351 33.3418C394.034 33.1703 393.787 32.9297 393.609 32.6198C393.437 32.3033 393.352 31.9374 393.352 31.522V30.0385C393.352 29.6165 393.437 29.2506 393.609 28.9407C393.787 28.6308 394.034 28.3902 394.351 28.2187C394.674 28.0473 395.049 27.9616 395.478 27.9616C395.907 27.9616 396.279 28.0473 396.596 28.2187C396.919 28.3902 397.166 28.6308 397.337 28.9407C397.515 29.2506 397.604 29.6165 397.604 30.0385V30.9978H394.222V31.522C394.222 31.9506 394.331 32.2802 394.548 32.511C394.766 32.7352 395.076 32.8473 395.478 32.8473C395.821 32.8473 396.098 32.7879 396.309 32.6692C396.52 32.544 396.648 32.3594 396.694 32.1154H397.585C397.525 32.5703 397.301 32.933 396.912 33.2033C396.53 33.467 396.052 33.5989 395.478 33.5989ZM396.734 30.4044V30.0385C396.734 29.6099 396.625 29.2803 396.408 29.0495C396.197 28.8187 395.887 28.7034 395.478 28.7034C395.076 28.7034 394.766 28.8187 394.548 29.0495C394.331 29.2803 394.222 29.6099 394.222 30.0385V30.3253H396.803L396.734 30.4044Z" fill="white"/>
<path d="M401.24 33.5791C400.871 33.5791 400.548 33.5231 400.271 33.411C400 33.2923 399.783 33.1275 399.618 32.9165C399.46 32.7055 399.364 32.455 399.331 32.1649H400.221C400.261 32.3561 400.366 32.5077 400.538 32.6198C400.716 32.7319 400.95 32.7879 401.24 32.7879H401.655C402.005 32.7879 402.265 32.7187 402.437 32.5802C402.608 32.4352 402.694 32.244 402.694 32.0066C402.694 31.7758 402.615 31.5945 402.456 31.4627C402.305 31.3242 402.077 31.2319 401.774 31.1857L401.042 31.0671C400.508 30.9748 400.109 30.8099 399.845 30.5726C399.588 30.3286 399.46 29.9759 399.46 29.5143C399.46 29.0264 399.615 28.6506 399.925 28.3869C400.234 28.1165 400.699 27.9814 401.319 27.9814H401.695C402.216 27.9814 402.634 28.1034 402.951 28.3473C403.267 28.5913 403.459 28.9209 403.525 29.3363H402.634C402.595 29.1649 402.496 29.0297 402.338 28.9308C402.18 28.8253 401.965 28.7726 401.695 28.7726H401.319C400.983 28.7726 400.736 28.8352 400.577 28.9605C400.426 29.0858 400.35 29.2737 400.35 29.5242C400.35 29.7484 400.416 29.9132 400.548 30.0187C400.68 30.1242 400.887 30.2 401.171 30.2462L401.903 30.3649C402.489 30.4572 402.915 30.6286 403.178 30.8792C403.449 31.1297 403.584 31.4923 403.584 31.9671C403.584 32.4681 403.422 32.8637 403.099 33.1539C402.783 33.4374 402.302 33.5791 401.655 33.5791H401.24Z" fill="white"/>
<path d="M407.338 29.4451C407.094 29.4451 406.896 29.3792 406.745 29.2473C406.593 29.1088 406.517 28.9275 406.517 28.7034C406.517 28.4792 406.593 28.3012 406.745 28.1693C406.896 28.0308 407.094 27.9616 407.338 27.9616C407.589 27.9616 407.787 28.0308 407.932 28.1693C408.083 28.3012 408.159 28.4792 408.159 28.7034C408.159 28.9275 408.083 29.1088 407.932 29.2473C407.787 29.3792 407.589 29.4451 407.338 29.4451ZM407.338 33.5989C407.094 33.5989 406.896 33.533 406.745 33.4011C406.593 33.2626 406.517 33.0813 406.517 32.8572C406.517 32.633 406.593 32.455 406.745 32.3231C406.896 32.1846 407.094 32.1154 407.338 32.1154C407.589 32.1154 407.787 32.1846 407.932 32.3231C408.083 32.455 408.159 32.633 408.159 32.8572C408.159 33.0813 408.083 33.2626 407.932 33.4011C407.787 33.533 407.589 33.5989 407.338 33.5989Z" fill="white"/>
<path d="M158.92 39.5V32.2803H159.81V35.366H162.124V32.2803H163.014V39.5H162.124V36.177H159.81V39.5H158.92Z" fill="white"/>
<path d="M164.771 39.5V38.689H166.699V34.8715H165.018V34.0605H167.589V38.689H169.419V39.5H164.771ZM167.045 33.0814C166.828 33.0814 166.656 33.0253 166.531 32.9133C166.406 32.8012 166.343 32.6495 166.343 32.4583C166.343 32.2605 166.406 32.1056 166.531 31.9935C166.656 31.8748 166.828 31.8155 167.045 31.8155C167.263 31.8155 167.434 31.8748 167.56 31.9935C167.685 32.1056 167.748 32.2605 167.748 32.4583C167.748 32.6495 167.685 32.8012 167.56 32.9133C167.434 33.0253 167.263 33.0814 167.045 33.0814Z" fill="white"/>
<path d="M172.511 37.3736L172.303 33.4671V32.2803H173.351V33.4671L173.144 37.3736H172.511ZM172.679 39.5494C172.507 39.5494 172.366 39.4934 172.254 39.3813C172.142 39.2692 172.086 39.1275 172.086 38.956C172.086 38.7846 172.142 38.6429 172.254 38.5308C172.366 38.4187 172.507 38.3626 172.679 38.3626H172.976C173.167 38.3626 173.312 38.4187 173.411 38.5308C173.516 38.6363 173.569 38.7747 173.569 38.9462C173.569 39.1176 173.513 39.2626 173.401 39.3813C173.289 39.4934 173.147 39.5494 172.976 39.5494H172.679Z" fill="white"/>
<path d="M160.522 65.5V59.0814H158.544V58.2704H163.39V59.0814H161.412V65.5H160.522Z" fill="white"/>
<path d="M164.84 65.5V58.2803H165.73V61.0989H165.918L165.73 61.3066C165.73 60.8781 165.859 60.5484 166.116 60.3176C166.373 60.0803 166.729 59.9616 167.184 59.9616C167.731 59.9616 168.166 60.1297 168.489 60.466C168.812 60.8022 168.974 61.2605 168.974 61.8407V65.5H168.084V61.9396C168.084 61.5506 167.978 61.2506 167.767 61.0396C167.563 60.822 167.283 60.7132 166.927 60.7132C166.558 60.7132 166.264 60.8286 166.047 61.0594C165.836 61.2902 165.73 61.6165 165.73 62.0385V65.5H164.84Z" fill="white"/>
<path d="M170.701 65.5V64.689H172.629V60.8715H170.948V60.0605H173.52V64.689H175.349V65.5H170.701ZM172.976 59.0814C172.758 59.0814 172.587 59.0253 172.461 58.9133C172.336 58.8012 172.273 58.6495 172.273 58.4583C172.273 58.2605 172.336 58.1056 172.461 57.9935C172.587 57.8748 172.758 57.8155 172.976 57.8155C173.193 57.8155 173.365 57.8748 173.49 57.9935C173.615 58.1056 173.678 58.2605 173.678 58.4583C173.678 58.6495 173.615 58.8012 173.49 58.9133C173.365 59.0253 173.193 59.0814 172.976 59.0814Z" fill="white"/>
<path d="M178.589 65.5791C178.22 65.5791 177.897 65.5231 177.62 65.411C177.35 65.2923 177.132 65.1275 176.967 64.9165C176.809 64.7055 176.713 64.455 176.681 64.1648H177.571C177.61 64.3561 177.716 64.5077 177.887 64.6198C178.065 64.7319 178.299 64.7879 178.589 64.7879H179.005C179.354 64.7879 179.615 64.7187 179.786 64.5802C179.957 64.4352 180.043 64.244 180.043 64.0066C180.043 63.7758 179.964 63.5945 179.806 63.4627C179.654 63.3242 179.427 63.2319 179.123 63.1857L178.391 63.0671C177.857 62.9748 177.459 62.8099 177.195 62.5726C176.938 62.3286 176.809 61.9759 176.809 61.5143C176.809 61.0264 176.964 60.6506 177.274 60.3869C177.584 60.1165 178.049 59.9814 178.668 59.9814H179.044C179.565 59.9814 179.984 60.1034 180.3 60.3473C180.617 60.5913 180.808 60.9209 180.874 61.3363H179.984C179.944 61.1649 179.845 61.0297 179.687 60.9308C179.529 60.8253 179.315 60.7726 179.044 60.7726H178.668C178.332 60.7726 178.085 60.8352 177.927 60.9605C177.775 61.0858 177.699 61.2737 177.699 61.5242C177.699 61.7484 177.765 61.9132 177.897 62.0187C178.029 62.1242 178.237 62.2 178.52 62.2462L179.252 62.3649C179.839 62.4572 180.264 62.6286 180.528 62.8791C180.798 63.1297 180.933 63.4923 180.933 63.967C180.933 64.4681 180.772 64.8637 180.449 65.1538C180.132 65.4374 179.651 65.5791 179.005 65.5791H178.589Z" fill="white"/>
<path d="M188.491 65.5V64.689H190.42V60.8715H188.739V60.0605H191.31V64.689H193.14V65.5H188.491ZM190.766 59.0814C190.548 59.0814 190.377 59.0253 190.252 58.9133C190.126 58.8012 190.064 58.6495 190.064 58.4583C190.064 58.2605 190.126 58.1056 190.252 57.9935C190.377 57.8748 190.548 57.8155 190.766 57.8155C190.984 57.8155 191.155 57.8748 191.28 57.9935C191.406 58.1056 191.468 58.2605 191.468 58.4583C191.468 58.6495 191.406 58.8012 191.28 58.9133C191.155 59.0253 190.984 59.0814 190.766 59.0814Z" fill="white"/>
<path d="M196.38 65.5791C196.01 65.5791 195.687 65.5231 195.41 65.411C195.14 65.2923 194.923 65.1275 194.758 64.9165C194.599 64.7055 194.504 64.455 194.471 64.1648H195.361C195.401 64.3561 195.506 64.5077 195.677 64.6198C195.856 64.7319 196.09 64.7879 196.38 64.7879H196.795C197.145 64.7879 197.405 64.7187 197.576 64.5802C197.748 64.4352 197.834 64.244 197.834 64.0066C197.834 63.7758 197.754 63.5945 197.596 63.4627C197.445 63.3242 197.217 63.2319 196.914 63.1857L196.182 63.0671C195.648 62.9748 195.249 62.8099 194.985 62.5726C194.728 62.3286 194.599 61.9759 194.599 61.5143C194.599 61.0264 194.754 60.6506 195.064 60.3869C195.374 60.1165 195.839 59.9814 196.459 59.9814H196.835C197.356 59.9814 197.774 60.1034 198.091 60.3473C198.407 60.5913 198.598 60.9209 198.664 61.3363H197.774C197.735 61.1649 197.636 61.0297 197.477 60.9308C197.319 60.8253 197.105 60.7726 196.835 60.7726H196.459C196.123 60.7726 195.875 60.8352 195.717 60.9605C195.565 61.0858 195.49 61.2737 195.49 61.5242C195.49 61.7484 195.556 61.9132 195.687 62.0187C195.819 62.1242 196.027 62.2 196.31 62.2462L197.042 62.3649C197.629 62.4572 198.054 62.6286 198.318 62.8791C198.588 63.1297 198.724 63.4923 198.724 63.967C198.724 64.4681 198.562 64.8637 198.239 65.1538C197.923 65.4374 197.441 65.5791 196.795 65.5791H196.38Z" fill="white"/>
<path d="M206.094 65.5V60.0605H206.875V60.7132H207.053L206.915 60.9506C206.915 60.6473 206.994 60.4066 207.152 60.2286C207.317 60.0506 207.538 59.9616 207.815 59.9616C208.118 59.9616 208.352 60.0737 208.517 60.2979C208.682 60.522 208.764 60.8385 208.764 61.2473L208.497 60.7132H208.912L208.725 60.9506C208.725 60.6473 208.807 60.4066 208.972 60.2286C209.143 60.0506 209.367 59.9616 209.644 59.9616C209.987 59.9616 210.251 60.0902 210.436 60.3473C210.627 60.6044 210.722 60.944 210.722 61.366V65.5H209.901V61.3561C209.901 61.1319 209.852 60.9572 209.753 60.8319C209.661 60.7066 209.522 60.644 209.338 60.644C209.16 60.644 209.018 60.7066 208.912 60.8319C208.814 60.9506 208.764 61.122 208.764 61.3462V65.5H208.052V61.3561C208.052 61.1253 207.999 60.9506 207.894 60.8319C207.795 60.7066 207.653 60.644 207.469 60.644C207.284 60.644 207.145 60.7066 207.053 60.8319C206.961 60.9506 206.915 61.122 206.915 61.3462V65.5H206.094Z" fill="white"/>
<path d="M213.132 67.2802L213.933 65.1637L211.915 60.0605H212.904L214.17 63.4231C214.216 63.5352 214.259 63.6703 214.299 63.8286C214.338 63.9802 214.371 64.1088 214.398 64.2143C214.424 64.1088 214.457 63.9802 214.496 63.8286C214.536 63.6703 214.576 63.5352 214.615 63.4231L215.802 60.0605H216.761L214.081 67.2802H213.132Z" fill="white"/>
<path d="M224.141 67.2802V60.0605H225.031V61.0989H225.21L225.031 61.3066C225.031 60.8913 225.167 60.5649 225.437 60.3275C225.714 60.0836 226.077 59.9616 226.525 59.9616C227.072 59.9616 227.507 60.1429 227.83 60.5055C228.16 60.8616 228.325 61.3528 228.325 61.9792V63.5714C228.325 63.9868 228.249 64.3462 228.097 64.6495C227.952 64.9528 227.745 65.1868 227.474 65.3516C227.211 65.5165 226.894 65.5989 226.525 65.5989C226.083 65.5989 225.724 65.4769 225.447 65.233C225.17 64.989 225.031 64.6626 225.031 64.2539L225.21 64.4615H225.012L225.031 65.6978V67.2802H224.141ZM226.228 64.8275C226.604 64.8275 226.897 64.7154 227.108 64.4912C227.326 64.267 227.435 63.944 227.435 63.522V62.0385C227.435 61.6165 227.326 61.2935 227.108 61.0693C226.897 60.8451 226.604 60.733 226.228 60.733C225.866 60.733 225.575 60.8484 225.358 61.0792C225.14 61.3099 225.031 61.6297 225.031 62.0385V63.522C225.031 63.9308 225.14 64.2506 225.358 64.4813C225.575 64.7121 225.866 64.8275 226.228 64.8275Z" fill="white"/>
<path d="M230.259 65.5V60.0605H231.13V61.0989H231.337L231.051 61.7418C231.051 61.155 231.176 60.7132 231.426 60.4165C231.684 60.1132 232.063 59.9616 232.564 59.9616C233.137 59.9616 233.592 60.1429 233.929 60.5055C234.271 60.8616 234.443 61.3462 234.443 61.9594V62.2857H233.553V62.0385C233.553 61.6099 233.447 61.2836 233.236 61.0594C233.032 60.8286 232.739 60.7132 232.356 60.7132C231.98 60.7132 231.684 60.8286 231.466 61.0594C231.255 61.2902 231.15 61.6165 231.15 62.0385V65.5H230.259Z" fill="white"/>
<path d="M238.059 65.5791C237.624 65.5791 237.248 65.4967 236.931 65.3319C236.615 65.167 236.368 64.9297 236.19 64.6198C236.018 64.3033 235.932 63.9308 235.932 63.5022V62.0583C235.932 61.6231 236.018 61.2506 236.19 60.9407C236.368 60.6308 236.615 60.3935 236.931 60.2286C237.248 60.0638 237.624 59.9814 238.059 59.9814C238.494 59.9814 238.87 60.0638 239.186 60.2286C239.503 60.3935 239.747 60.6308 239.918 60.9407C240.096 61.2506 240.185 61.6198 240.185 62.0484V63.5022C240.185 63.9308 240.096 64.3033 239.918 64.6198C239.747 64.9297 239.503 65.167 239.186 65.3319C238.87 65.4967 238.494 65.5791 238.059 65.5791ZM238.059 64.7879C238.448 64.7879 238.751 64.6791 238.969 64.4615C239.186 64.244 239.295 63.9242 239.295 63.5022V62.0583C239.295 61.6363 239.186 61.3165 238.969 61.0989C238.751 60.8814 238.448 60.7726 238.059 60.7726C237.676 60.7726 237.373 60.8814 237.149 61.0989C236.931 61.3165 236.823 61.6363 236.823 62.0583V63.5022C236.823 63.9242 236.931 64.244 237.149 64.4615C237.373 64.6791 237.676 64.7879 238.059 64.7879Z" fill="white"/>
<path d="M243.198 65.5V61.4154H241.615V60.6044H243.198V59.6649C243.198 59.2363 243.333 58.9001 243.603 58.6561C243.874 58.4056 244.246 58.2803 244.721 58.2803H246.313V59.0913H244.721C244.516 59.0913 244.358 59.1407 244.246 59.2396C244.141 59.3319 244.088 59.4737 244.088 59.6649V60.6044H246.313V61.4154H244.088V65.5H243.198Z" fill="white"/>
<path d="M247.793 65.5V64.689H249.721V60.8715H248.04V60.0605H250.611V64.689H252.441V65.5H247.793ZM250.067 59.0814C249.85 59.0814 249.678 59.0253 249.553 58.9133C249.428 58.8012 249.365 58.6495 249.365 58.4583C249.365 58.2605 249.428 58.1056 249.553 57.9935C249.678 57.8748 249.85 57.8155 250.067 57.8155C250.285 57.8155 250.456 57.8748 250.582 57.9935C250.707 58.1056 250.77 58.2605 250.77 58.4583C250.77 58.6495 250.707 58.8012 250.582 58.9133C250.456 59.0253 250.285 59.0814 250.067 59.0814Z" fill="white"/>
<path d="M256.591 65.5C256.274 65.5 255.998 65.4374 255.76 65.3121C255.523 65.1868 255.338 65.0088 255.206 64.778C255.074 64.5473 255.009 64.2769 255.009 63.967V59.0913H253.179V58.2803H255.899V63.967C255.899 64.1912 255.961 64.3692 256.087 64.5011C256.212 64.6264 256.38 64.689 256.591 64.689H258.322V65.5H256.591Z" fill="white"/>
<path d="M261.779 65.5989C261.351 65.5989 260.975 65.5132 260.652 65.3418C260.335 65.1703 260.088 64.9297 259.91 64.6198C259.739 64.3033 259.653 63.9374 259.653 63.522V62.0385C259.653 61.6165 259.739 61.2506 259.91 60.9407C260.088 60.6308 260.335 60.3902 260.652 60.2187C260.975 60.0473 261.351 59.9616 261.779 59.9616C262.208 59.9616 262.58 60.0473 262.897 60.2187C263.22 60.3902 263.467 60.6308 263.639 60.9407C263.817 61.2506 263.906 61.6165 263.906 62.0385V62.9978H260.523V63.522C260.523 63.9506 260.632 64.2802 260.85 64.511C261.067 64.7352 261.377 64.8473 261.779 64.8473C262.122 64.8473 262.399 64.7879 262.61 64.6692C262.821 64.544 262.95 64.3594 262.996 64.1154H263.886C263.827 64.5703 263.602 64.933 263.213 65.2033C262.831 65.467 262.353 65.5989 261.779 65.5989ZM263.035 62.4044V62.0385C263.035 61.6099 262.927 61.2803 262.709 61.0495C262.498 60.8187 262.188 60.7033 261.779 60.7033C261.377 60.7033 261.067 60.8187 260.85 61.0495C260.632 61.2803 260.523 61.6099 260.523 62.0385V62.3253H263.105L263.035 62.4044Z" fill="white"/>
<path d="M267.393 63.3736L267.185 59.4671V58.2803H268.234V59.4671L268.026 63.3736H267.393ZM267.561 65.5494C267.39 65.5494 267.248 65.4934 267.136 65.3813C267.024 65.2692 266.968 65.1275 266.968 64.956C266.968 64.7846 267.024 64.6429 267.136 64.5308C267.248 64.4187 267.39 64.3626 267.561 64.3626H267.858C268.049 64.3626 268.194 64.4187 268.293 64.5308C268.398 64.6363 268.451 64.7747 268.451 64.9462C268.451 65.1176 268.395 65.2626 268.283 65.3813C268.171 65.4934 268.029 65.5494 267.858 65.5494H267.561Z" fill="white"/>
<path d="M159.038 78.5V77.689H160.512V72.0913H159.038V71.2803H162.896V72.0913H161.422V77.689H162.896V78.5H159.038Z" fill="white"/>
<path d="M171.077 78.5L170.206 73.0605H170.998L171.542 76.9176C171.561 77.0627 171.581 77.2209 171.601 77.3923C171.627 77.5572 171.647 77.6956 171.66 77.8077C171.673 77.6956 171.693 77.5572 171.72 77.3923C171.753 77.2209 171.779 77.0627 171.799 76.9176L172.402 73.0605H173.253L173.856 76.9176C173.876 77.0627 173.899 77.2209 173.925 77.3923C173.958 77.5572 173.981 77.6956 173.994 77.8077C174.007 77.6956 174.027 77.5572 174.054 77.3923C174.087 77.2209 174.113 77.0627 174.133 76.9176L174.696 73.0605H175.448L174.538 78.5H173.559L172.976 74.7418C172.949 74.5572 172.92 74.3726 172.887 74.188C172.854 74.0033 172.831 73.8583 172.817 73.7528C172.804 73.8583 172.784 74.0033 172.758 74.188C172.732 74.3726 172.702 74.5572 172.669 74.7418L172.056 78.5H171.077Z" fill="white"/>
<path d="M176.631 78.5V77.689H178.56V73.8715H176.878V73.0605H179.45V77.689H181.279V78.5H176.631ZM178.906 72.0814C178.688 72.0814 178.517 72.0253 178.391 71.9133C178.266 71.8012 178.204 71.6495 178.204 71.4583C178.204 71.2605 178.266 71.1056 178.391 70.9935C178.517 70.8748 178.688 70.8155 178.906 70.8155C179.123 70.8155 179.295 70.8748 179.42 70.9935C179.545 71.1056 179.608 71.2605 179.608 71.4583C179.608 71.6495 179.545 71.8012 179.42 71.9133C179.295 72.0253 179.123 72.0814 178.906 72.0814Z" fill="white"/>
<path d="M185.429 78.5C185.113 78.5 184.836 78.4374 184.599 78.3121C184.361 78.1868 184.177 78.0088 184.045 77.778C183.913 77.5473 183.847 77.2769 183.847 76.967V72.0913H182.017V71.2803H184.737V76.967C184.737 77.1912 184.8 77.3692 184.925 77.5011C185.05 77.6264 185.218 77.689 185.429 77.689H187.16V78.5H185.429Z" fill="white"/>
<path d="M191.359 78.5C191.043 78.5 190.766 78.4374 190.529 78.3121C190.291 78.1868 190.107 78.0088 189.975 77.778C189.843 77.5473 189.777 77.2769 189.777 76.967V72.0913H187.947V71.2803H190.667V76.967C190.667 77.1912 190.73 77.3692 190.855 77.5011C190.98 77.6264 191.148 77.689 191.359 77.689H193.09V78.5H191.359Z" fill="white"/>
<path d="M200.421 80.2802V73.0605H201.311V74.0989H201.489L201.311 74.3066C201.311 73.8913 201.446 73.5649 201.716 73.3275C201.993 73.0836 202.356 72.9616 202.804 72.9616C203.352 72.9616 203.787 73.1429 204.11 73.5055C204.439 73.8616 204.604 74.3528 204.604 74.9792V76.5714C204.604 76.9868 204.528 77.3462 204.377 77.6495C204.232 77.9528 204.024 78.1868 203.754 78.3516C203.49 78.5165 203.174 78.5989 202.804 78.5989C202.363 78.5989 202.003 78.4769 201.726 78.233C201.449 77.989 201.311 77.6626 201.311 77.2539L201.489 77.4615H201.291L201.311 78.6978V80.2802H200.421ZM202.508 77.8275C202.883 77.8275 203.177 77.7154 203.388 77.4912C203.605 77.267 203.714 76.944 203.714 76.522V75.0385C203.714 74.6165 203.605 74.2935 203.388 74.0693C203.177 73.8451 202.883 73.733 202.508 73.733C202.145 73.733 201.855 73.8484 201.637 74.0792C201.42 74.3099 201.311 74.6297 201.311 75.0385V76.522C201.311 76.9308 201.42 77.2506 201.637 77.4813C201.855 77.7121 202.145 77.8275 202.508 77.8275Z" fill="white"/>
<path d="M206.539 78.5V73.0605H207.409V74.0989H207.617L207.33 74.7418C207.33 74.155 207.455 73.7132 207.706 73.4165C207.963 73.1132 208.342 72.9616 208.843 72.9616C209.417 72.9616 209.872 73.1429 210.208 73.5055C210.551 73.8616 210.722 74.3462 210.722 74.9594V75.2857H209.832V75.0385C209.832 74.6099 209.727 74.2836 209.516 74.0594C209.311 73.8286 209.018 73.7132 208.636 73.7132C208.26 73.7132 207.963 73.8286 207.745 74.0594C207.534 74.2902 207.429 74.6165 207.429 75.0385V78.5H206.539Z" fill="white"/>
<path d="M214.338 78.5791C213.903 78.5791 213.527 78.4967 213.211 78.3319C212.894 78.167 212.647 77.9297 212.469 77.6198C212.298 77.3033 212.212 76.9308 212.212 76.5022V75.0583C212.212 74.6231 212.298 74.2506 212.469 73.9407C212.647 73.6308 212.894 73.3935 213.211 73.2286C213.527 73.0638 213.903 72.9814 214.338 72.9814C214.773 72.9814 215.149 73.0638 215.466 73.2286C215.782 73.3935 216.026 73.6308 216.198 73.9407C216.376 74.2506 216.465 74.6198 216.465 75.0484V76.5022C216.465 76.9308 216.376 77.3033 216.198 77.6198C216.026 77.9297 215.782 78.167 215.466 78.3319C215.149 78.4967 214.773 78.5791 214.338 78.5791ZM214.338 77.7879C214.727 77.7879 215.031 77.6791 215.248 77.4615C215.466 77.244 215.574 76.9242 215.574 76.5022V75.0583C215.574 74.6363 215.466 74.3165 215.248 74.0989C215.031 73.8814 214.727 73.7726 214.338 73.7726C213.956 73.7726 213.653 73.8814 213.428 74.0989C213.211 74.3165 213.102 74.6363 213.102 75.0583V76.5022C213.102 76.9242 213.211 77.244 213.428 77.4615C213.653 77.6791 213.956 77.7879 214.338 77.7879Z" fill="white"/>
<path d="M220.585 78.5989C220.136 78.5989 219.777 78.4802 219.507 78.2429C219.237 77.9989 219.101 77.6692 219.101 77.2539L219.279 77.4615H219.101V78.5H218.211V71.2803H219.101V72.8627L219.082 74.0989H219.279L219.101 74.3066C219.101 73.8979 219.237 73.5715 219.507 73.3275C219.784 73.0836 220.143 72.9616 220.585 72.9616C221.132 72.9616 221.571 73.1429 221.9 73.5055C222.23 73.8682 222.395 74.3627 222.395 74.989V76.5813C222.395 77.2011 222.23 77.6923 221.9 78.0549C221.571 78.4176 221.132 78.5989 220.585 78.5989ZM220.288 77.8275C220.664 77.8275 220.961 77.7154 221.178 77.4912C221.396 77.267 221.505 76.944 221.505 76.522V75.0385C221.505 74.6165 221.396 74.2935 221.178 74.0693C220.961 73.8451 220.664 73.733 220.288 73.733C219.926 73.733 219.635 73.8484 219.418 74.0792C219.207 74.3099 219.101 74.6297 219.101 75.0385V76.522C219.101 76.9308 219.207 77.2506 219.418 77.4813C219.635 77.7121 219.926 77.8275 220.288 77.8275Z" fill="white"/>
<path d="M225.724 78.5989C225.15 78.5989 224.699 78.4538 224.369 78.1637C224.039 77.867 223.874 77.4681 223.874 76.967C223.874 76.4594 224.039 76.0605 224.369 75.7704C224.699 75.4803 225.144 75.3352 225.704 75.3352H227.385V74.7912C227.385 74.455 227.283 74.1978 227.079 74.0198C226.881 73.8352 226.597 73.7429 226.228 73.7429C225.905 73.7429 225.635 73.8121 225.417 73.9506C225.2 74.0825 225.074 74.2638 225.041 74.4945H224.151C224.211 74.0264 224.431 73.6539 224.814 73.377C225.196 73.1001 225.674 72.9616 226.248 72.9616C226.874 72.9616 227.369 73.1231 227.731 73.4462C228.094 73.7693 228.275 74.2077 228.275 74.7616V78.5H227.405V77.4615H227.257L227.405 77.3132C227.405 77.7088 227.25 78.022 226.94 78.2527C226.637 78.4835 226.231 78.5989 225.724 78.5989ZM225.941 77.8967C226.363 77.8967 226.709 77.7912 226.98 77.5802C227.25 77.3692 227.385 77.0989 227.385 76.7692V75.9978H225.724C225.427 75.9978 225.193 76.0802 225.022 76.2451C224.85 76.4099 224.764 76.6341 224.764 76.9176C224.764 77.2209 224.867 77.4615 225.071 77.6396C225.282 77.811 225.572 77.8967 225.941 77.8967Z" fill="white"/>
<path d="M232.445 78.5989C231.997 78.5989 231.637 78.4802 231.367 78.2429C231.097 77.9989 230.962 77.6692 230.962 77.2539L231.14 77.4615H230.962V78.5H230.072V71.2803H230.962V72.8627L230.942 74.0989H231.14L230.962 74.3066C230.962 73.8979 231.097 73.5715 231.367 73.3275C231.644 73.0836 232.003 72.9616 232.445 72.9616C232.992 72.9616 233.431 73.1429 233.76 73.5055C234.09 73.8682 234.255 74.3627 234.255 74.989V76.5813C234.255 77.2011 234.09 77.6923 233.76 78.0549C233.431 78.4176 232.992 78.5989 232.445 78.5989ZM232.148 77.8275C232.524 77.8275 232.821 77.7154 233.039 77.4912C233.256 77.267 233.365 76.944 233.365 76.522V75.0385C233.365 74.6165 233.256 74.2935 233.039 74.0693C232.821 73.8451 232.524 73.733 232.148 73.733C231.786 73.733 231.496 73.8484 231.278 74.0792C231.067 74.3099 230.962 74.6297 230.962 75.0385V76.522C230.962 76.9308 231.067 77.2506 231.278 77.4813C231.496 77.7121 231.786 77.8275 232.148 77.8275Z" fill="white"/>
<path d="M238.801 78.5C238.484 78.5 238.207 78.4374 237.97 78.3121C237.732 78.1868 237.548 78.0088 237.416 77.778C237.284 77.5473 237.218 77.2769 237.218 76.967V72.0913H235.388V71.2803H238.108V76.967C238.108 77.1912 238.171 77.3692 238.296 77.5011C238.421 77.6264 238.59 77.689 238.801 77.689H240.531V78.5H238.801Z" fill="white"/>
<path d="M242.782 80.2802L243.583 78.1637L241.566 73.0605H242.555L243.821 76.4231C243.867 76.5352 243.91 76.6703 243.949 76.8286C243.989 76.9802 244.022 77.1088 244.048 77.2143C244.075 77.1088 244.108 76.9802 244.147 76.8286C244.187 76.6703 244.226 76.5352 244.266 76.4231L245.453 73.0605H246.412L243.732 80.2802H242.782Z" fill="white"/>
<path d="M255.681 78.5791C255.312 78.5791 254.989 78.5231 254.712 78.411C254.442 78.2923 254.224 78.1275 254.059 77.9165C253.901 77.7055 253.805 77.455 253.772 77.1648H254.662C254.702 77.3561 254.807 77.5077 254.979 77.6198C255.157 77.7319 255.391 77.7879 255.681 77.7879H256.096C256.446 77.7879 256.706 77.7187 256.878 77.5802C257.049 77.4352 257.135 77.244 257.135 77.0066C257.135 76.7758 257.056 76.5945 256.898 76.4627C256.746 76.3242 256.518 76.2319 256.215 76.1857L255.483 76.0671C254.949 75.9748 254.55 75.8099 254.287 75.5726C254.029 75.3286 253.901 74.9759 253.901 74.5143C253.901 74.0264 254.056 73.6506 254.366 73.3869C254.676 73.1165 255.14 72.9814 255.76 72.9814H256.136C256.657 72.9814 257.076 73.1034 257.392 73.3473C257.709 73.5913 257.9 73.9209 257.966 74.3363H257.076C257.036 74.1649 256.937 74.0297 256.779 73.9308C256.621 73.8253 256.406 73.7726 256.136 73.7726H255.76C255.424 73.7726 255.177 73.8352 255.018 73.9605C254.867 74.0858 254.791 74.2737 254.791 74.5242C254.791 74.7484 254.857 74.9132 254.989 75.0187C255.121 75.1242 255.328 75.2 255.612 75.2462L256.344 75.3649C256.93 75.4572 257.356 75.6286 257.619 75.8791C257.89 76.1297 258.025 76.4923 258.025 76.967C258.025 77.4681 257.863 77.8637 257.54 78.1538C257.224 78.4374 256.743 78.5791 256.096 78.5791H255.681Z" fill="white"/>
<path d="M259.722 78.5V71.2803H260.612V74.0989H260.8L260.612 74.3066C260.612 73.8781 260.741 73.5484 260.998 73.3176C261.255 73.0803 261.611 72.9616 262.066 72.9616C262.613 72.9616 263.049 73.1297 263.372 73.466C263.695 73.8022 263.856 74.2605 263.856 74.8407V78.5H262.966V74.9396C262.966 74.5506 262.861 74.2506 262.65 74.0396C262.445 73.822 262.165 73.7132 261.809 73.7132C261.44 73.7132 261.146 73.8286 260.929 74.0594C260.718 74.2902 260.612 74.6165 260.612 75.0385V78.5H259.722Z" fill="white"/>
<path d="M267.235 78.5989C266.661 78.5989 266.209 78.4538 265.88 78.1637C265.55 77.867 265.385 77.4681 265.385 76.967C265.385 76.4594 265.55 76.0605 265.88 75.7704C266.209 75.4803 266.655 75.3352 267.215 75.3352H268.896V74.7912C268.896 74.455 268.794 74.1978 268.59 74.0198C268.392 73.8352 268.108 73.7429 267.739 73.7429C267.416 73.7429 267.146 73.8121 266.928 73.9506C266.711 74.0825 266.585 74.2638 266.552 74.4945H265.662C265.722 74.0264 265.942 73.6539 266.325 73.377C266.707 73.1001 267.185 72.9616 267.759 72.9616C268.385 72.9616 268.88 73.1231 269.242 73.4462C269.605 73.7693 269.786 74.2077 269.786 74.7616V78.5H268.916V77.4615H268.768L268.916 77.3132C268.916 77.7088 268.761 78.022 268.451 78.2527C268.148 78.4835 267.742 78.5989 267.235 78.5989ZM267.452 77.8967C267.874 77.8967 268.22 77.7912 268.491 77.5802C268.761 77.3692 268.896 77.0989 268.896 76.7692V75.9978H267.235C266.938 75.9978 266.704 76.0802 266.533 76.2451C266.361 76.4099 266.275 76.6341 266.275 76.9176C266.275 77.2209 266.378 77.4615 266.582 77.6396C266.793 77.811 267.083 77.8967 267.452 77.8967Z" fill="white"/>
<path d="M271.77 78.5V73.0605H272.641V74.0989H272.848L272.562 74.7418C272.562 74.155 272.687 73.7132 272.937 73.4165C273.195 73.1132 273.574 72.9616 274.075 72.9616C274.648 72.9616 275.103 73.1429 275.44 73.5055C275.782 73.8616 275.954 74.3462 275.954 74.9594V75.2857H275.064V75.0385C275.064 74.6099 274.958 74.2836 274.747 74.0594C274.543 73.8286 274.249 73.7132 273.867 73.7132C273.491 73.7132 273.195 73.8286 272.977 74.0594C272.766 74.2902 272.66 74.6165 272.66 75.0385V78.5H271.77Z" fill="white"/>
<path d="M279.57 78.5989C279.141 78.5989 278.765 78.5132 278.442 78.3418C278.126 78.1703 277.879 77.9297 277.701 77.6198C277.529 77.3033 277.443 76.9374 277.443 76.522V75.0385C277.443 74.6165 277.529 74.2506 277.701 73.9407C277.879 73.6308 278.126 73.3902 278.442 73.2187C278.765 73.0473 279.141 72.9616 279.57 72.9616C279.998 72.9616 280.371 73.0473 280.687 73.2187C281.01 73.3902 281.258 73.6308 281.429 73.9407C281.607 74.2506 281.696 74.6165 281.696 75.0385V75.9978H278.314V76.522C278.314 76.9506 278.423 77.2802 278.64 77.511C278.858 77.7352 279.168 77.8473 279.57 77.8473C279.913 77.8473 280.19 77.7879 280.4 77.6692C280.611 77.544 280.74 77.3594 280.786 77.1154H281.676C281.617 77.5703 281.393 77.933 281.004 78.2033C280.621 78.467 280.143 78.5989 279.57 78.5989ZM280.826 75.4044V75.0385C280.826 74.6099 280.717 74.2803 280.499 74.0495C280.288 73.8187 279.979 73.7033 279.57 73.7033C279.168 73.7033 278.858 73.8187 278.64 74.0495C278.423 74.2803 278.314 74.6099 278.314 75.0385V75.3253H280.895L280.826 75.4044Z" fill="white"/>
<path d="M291.262 78.5791C290.893 78.5791 290.57 78.5231 290.293 78.411C290.022 78.2923 289.805 78.1275 289.64 77.9165C289.482 77.7055 289.386 77.455 289.353 77.1648H290.243C290.283 77.3561 290.388 77.5077 290.56 77.6198C290.738 77.7319 290.972 77.7879 291.262 77.7879H291.677C292.027 77.7879 292.287 77.7187 292.459 77.5802C292.63 77.4352 292.716 77.244 292.716 77.0066C292.716 76.7758 292.637 76.5945 292.478 76.4627C292.327 76.3242 292.099 76.2319 291.796 76.1857L291.064 76.0671C290.53 75.9748 290.131 75.8099 289.867 75.5726C289.61 75.3286 289.482 74.9759 289.482 74.5143C289.482 74.0264 289.637 73.6506 289.947 73.3869C290.256 73.1165 290.721 72.9814 291.341 72.9814H291.717C292.238 72.9814 292.656 73.1034 292.973 73.3473C293.289 73.5913 293.481 73.9209 293.546 74.3363H292.656C292.617 74.1649 292.518 74.0297 292.36 73.9308C292.201 73.8253 291.987 73.7726 291.717 73.7726H291.341C291.005 73.7726 290.757 73.8352 290.599 73.9605C290.448 74.0858 290.372 74.2737 290.372 74.5242C290.372 74.7484 290.438 74.9132 290.57 75.0187C290.701 75.1242 290.909 75.2 291.193 75.2462L291.925 75.3649C292.511 75.4572 292.937 75.6286 293.2 75.8791C293.471 76.1297 293.606 76.4923 293.606 76.967C293.606 77.4681 293.444 77.8637 293.121 78.1538C292.805 78.4374 292.323 78.5791 291.677 78.5791H291.262Z" fill="white"/>
<path d="M297.36 78.5791C296.925 78.5791 296.549 78.4967 296.233 78.3319C295.916 78.167 295.669 77.9297 295.491 77.6198C295.32 77.3033 295.234 76.9308 295.234 76.5022V75.0583C295.234 74.6231 295.32 74.2506 295.491 73.9407C295.669 73.6308 295.916 73.3935 296.233 73.2286C296.549 73.0638 296.925 72.9814 297.36 72.9814C297.795 72.9814 298.171 73.0638 298.488 73.2286C298.804 73.3935 299.048 73.6308 299.219 73.9407C299.397 74.2506 299.487 74.6198 299.487 75.0484V76.5022C299.487 76.9308 299.397 77.3033 299.219 77.6198C299.048 77.9297 298.804 78.167 298.488 78.3319C298.171 78.4967 297.795 78.5791 297.36 78.5791ZM297.36 77.7879C297.749 77.7879 298.052 77.6791 298.27 77.4615C298.488 77.244 298.596 76.9242 298.596 76.5022V75.0583C298.596 74.6363 298.488 74.3165 298.27 74.0989C298.052 73.8814 297.749 73.7726 297.36 73.7726C296.978 73.7726 296.674 73.8814 296.45 74.0989C296.233 74.3165 296.124 74.6363 296.124 75.0583V76.5022C296.124 76.9242 296.233 77.244 296.45 77.4615C296.674 77.6791 296.978 77.7879 297.36 77.7879Z" fill="white"/>
<path d="M300.976 78.5V73.0605H301.757V73.7132H301.935L301.797 73.9506C301.797 73.6473 301.876 73.4066 302.034 73.2286C302.199 73.0506 302.42 72.9616 302.697 72.9616C303 72.9616 303.234 73.0737 303.399 73.2979C303.564 73.522 303.646 73.8385 303.646 74.2473L303.379 73.7132H303.795L303.607 73.9506C303.607 73.6473 303.689 73.4066 303.854 73.2286C304.025 73.0506 304.25 72.9616 304.527 72.9616C304.869 72.9616 305.133 73.0902 305.318 73.3473C305.509 73.6044 305.605 73.944 305.605 74.366V78.5H304.784V74.3561C304.784 74.1319 304.734 73.9572 304.635 73.8319C304.543 73.7066 304.405 73.644 304.22 73.644C304.042 73.644 303.9 73.7066 303.795 73.8319C303.696 73.9506 303.646 74.122 303.646 74.3462V78.5H302.934V74.3561C302.934 74.1253 302.881 73.9506 302.776 73.8319C302.677 73.7066 302.535 73.644 302.351 73.644C302.166 73.644 302.028 73.7066 301.935 73.8319C301.843 73.9506 301.797 74.122 301.797 74.3462V78.5H300.976Z" fill="white"/>
<path d="M309.22 78.5989C308.792 78.5989 308.416 78.5132 308.093 78.3418C307.776 78.1703 307.529 77.9297 307.351 77.6198C307.18 77.3033 307.094 76.9374 307.094 76.522V75.0385C307.094 74.6165 307.18 74.2506 307.351 73.9407C307.529 73.6308 307.776 73.3902 308.093 73.2187C308.416 73.0473 308.792 72.9616 309.22 72.9616C309.649 72.9616 310.022 73.0473 310.338 73.2187C310.661 73.3902 310.908 73.6308 311.08 73.9407C311.258 74.2506 311.347 74.6165 311.347 75.0385V75.9978H307.964V76.522C307.964 76.9506 308.073 77.2802 308.291 77.511C308.508 77.7352 308.818 77.8473 309.22 77.8473C309.563 77.8473 309.84 77.7879 310.051 77.6692C310.262 77.544 310.391 77.3594 310.437 77.1154H311.327C311.268 77.5703 311.043 77.933 310.654 78.2033C310.272 78.467 309.794 78.5989 309.22 78.5989ZM310.476 75.4044V75.0385C310.476 74.6099 310.368 74.2803 310.15 74.0495C309.939 73.8187 309.629 73.7033 309.22 73.7033C308.818 73.7033 308.508 73.8187 308.291 74.0495C308.073 74.2803 307.964 74.6099 307.964 75.0385V75.3253H310.546L310.476 75.4044Z" fill="white"/>
<path d="M158.91 93.2802V86.0605H159.8V87.0989H159.978L159.8 87.3066C159.8 86.8913 159.935 86.5649 160.205 86.3275C160.482 86.0836 160.845 85.9616 161.293 85.9616C161.841 85.9616 162.276 86.1429 162.599 86.5055C162.929 86.8616 163.093 87.3528 163.093 87.9792V89.5714C163.093 89.9868 163.018 90.3462 162.866 90.6495C162.721 90.9528 162.513 91.1868 162.243 91.3516C161.979 91.5165 161.663 91.5989 161.293 91.5989C160.852 91.5989 160.492 91.4769 160.215 91.233C159.938 90.989 159.8 90.6626 159.8 90.2539L159.978 90.4615H159.78L159.8 91.6978V93.2802H158.91ZM160.997 90.8275C161.372 90.8275 161.666 90.7154 161.877 90.4912C162.094 90.267 162.203 89.944 162.203 89.522V88.0385C162.203 87.6165 162.094 87.2935 161.877 87.0693C161.666 86.8451 161.372 86.733 160.997 86.733C160.634 86.733 160.344 86.8484 160.126 87.0792C159.909 87.3099 159.8 87.6297 159.8 88.0385V89.522C159.8 89.9308 159.909 90.2506 160.126 90.4813C160.344 90.7121 160.634 90.8275 160.997 90.8275Z" fill="white"/>
<path d="M165.028 91.5V86.0605H165.898V87.0989H166.106L165.819 87.7418C165.819 87.155 165.944 86.7132 166.195 86.4165C166.452 86.1132 166.831 85.9616 167.332 85.9616C167.906 85.9616 168.361 86.1429 168.697 86.5055C169.04 86.8616 169.211 87.3462 169.211 87.9594V88.2857H168.321V88.0385C168.321 87.6099 168.216 87.2836 168.005 87.0594C167.8 86.8286 167.507 86.7132 167.125 86.7132C166.749 86.7132 166.452 86.8286 166.235 87.0594C166.024 87.2902 165.918 87.6165 165.918 88.0385V91.5H165.028Z" fill="white"/>
<path d="M172.827 91.5791C172.392 91.5791 172.016 91.4967 171.7 91.3319C171.383 91.167 171.136 90.9297 170.958 90.6198C170.787 90.3033 170.701 89.9308 170.701 89.5022V88.0583C170.701 87.6231 170.787 87.2506 170.958 86.9407C171.136 86.6308 171.383 86.3935 171.7 86.2286C172.016 86.0638 172.392 85.9814 172.827 85.9814C173.262 85.9814 173.638 86.0638 173.955 86.2286C174.271 86.3935 174.515 86.6308 174.687 86.9407C174.865 87.2506 174.954 87.6198 174.954 88.0484V89.5022C174.954 89.9308 174.865 90.3033 174.687 90.6198C174.515 90.9297 174.271 91.167 173.955 91.3319C173.638 91.4967 173.262 91.5791 172.827 91.5791ZM172.827 90.7879C173.216 90.7879 173.52 90.6791 173.737 90.4615C173.955 90.244 174.064 89.9242 174.064 89.5022V88.0583C174.064 87.6363 173.955 87.3165 173.737 87.0989C173.52 86.8814 173.216 86.7726 172.827 86.7726C172.445 86.7726 172.142 86.8814 171.917 87.0989C171.7 87.3165 171.591 87.6363 171.591 88.0583V89.5022C171.591 89.9242 171.7 90.244 171.917 90.4615C172.142 90.6791 172.445 90.7879 172.827 90.7879Z" fill="white"/>
<path d="M176.631 93.2802V92.4593H177.907C178.316 92.4593 178.632 92.3472 178.856 92.1231C179.087 91.9055 179.202 91.5956 179.202 91.1934V86.8715H176.928V86.0605H180.093V91.1934C180.093 91.833 179.895 92.3406 179.499 92.7165C179.104 93.0923 178.573 93.2802 177.907 93.2802H176.631ZM179.598 85.0814C179.38 85.0814 179.209 85.0253 179.084 84.9133C178.959 84.8012 178.896 84.6495 178.896 84.4583C178.896 84.2605 178.959 84.1056 179.084 83.9935C179.209 83.8748 179.38 83.8155 179.598 83.8155C179.816 83.8155 179.987 83.8748 180.112 83.9935C180.238 84.1056 180.3 84.2605 180.3 84.4583C180.3 84.6495 180.238 84.8012 180.112 84.9133C179.987 85.0253 179.816 85.0814 179.598 85.0814Z" fill="white"/>
<path d="M184.688 91.5989C184.259 91.5989 183.883 91.5132 183.56 91.3418C183.244 91.1703 182.996 90.9297 182.818 90.6198C182.647 90.3033 182.561 89.9374 182.561 89.522V88.0385C182.561 87.6165 182.647 87.2506 182.818 86.9407C182.996 86.6308 183.244 86.3902 183.56 86.2187C183.883 86.0473 184.259 85.9616 184.688 85.9616C185.116 85.9616 185.489 86.0473 185.805 86.2187C186.128 86.3902 186.375 86.6308 186.547 86.9407C186.725 87.2506 186.814 87.6165 186.814 88.0385V88.9978H183.432V89.522C183.432 89.9506 183.54 90.2802 183.758 90.511C183.975 90.7352 184.285 90.8473 184.688 90.8473C185.03 90.8473 185.307 90.7879 185.518 90.6692C185.729 90.544 185.858 90.3594 185.904 90.1154H186.794C186.735 90.5703 186.511 90.933 186.122 91.2033C185.739 91.467 185.261 91.5989 184.688 91.5989ZM185.944 88.4044V88.0385C185.944 87.6099 185.835 87.2803 185.617 87.0495C185.406 86.8187 185.096 86.7033 184.688 86.7033C184.285 86.7033 183.975 86.8187 183.758 87.0495C183.54 87.2803 183.432 87.6099 183.432 88.0385V88.3253H186.013L185.944 88.4044Z" fill="white"/>
<path d="M190.657 91.5989C190.222 91.5989 189.84 91.5165 189.51 91.3516C189.187 91.1868 188.936 90.9495 188.758 90.6396C188.58 90.3231 188.491 89.9506 188.491 89.522V88.0385C188.491 87.6033 188.58 87.2308 188.758 86.9209C188.936 86.611 189.187 86.3737 189.51 86.2088C189.84 86.044 190.222 85.9616 190.657 85.9616C191.284 85.9616 191.788 86.1297 192.17 86.466C192.553 86.8022 192.754 87.2605 192.774 87.8407H191.884C191.864 87.4913 191.745 87.2242 191.528 87.0396C191.317 86.8484 191.026 86.7528 190.657 86.7528C190.268 86.7528 189.958 86.8649 189.728 87.0891C189.497 87.3066 189.381 87.6198 189.381 88.0286V89.522C189.381 89.9308 189.497 90.2473 189.728 90.4714C189.958 90.6956 190.268 90.8077 190.657 90.8077C191.026 90.8077 191.317 90.7121 191.528 90.5209C191.745 90.3297 191.864 90.0627 191.884 89.7198H192.774C192.754 90.3 192.553 90.7582 192.17 91.0945C191.788 91.4308 191.284 91.5989 190.657 91.5989Z" fill="white"/>
<path d="M197.141 91.5C196.673 91.5 196.307 91.3747 196.043 91.1242C195.786 90.8736 195.658 90.5209 195.658 90.0659V86.8715H194.125V86.0605H195.658V84.5275H196.548V86.0605H198.724V86.8715H196.548V90.0659C196.548 90.4813 196.746 90.689 197.141 90.689H198.625V91.5H197.141Z" fill="white"/>
<path d="M202.31 91.5791C201.941 91.5791 201.618 91.5231 201.341 91.411C201.07 91.2923 200.853 91.1275 200.688 90.9165C200.53 90.7055 200.434 90.455 200.401 90.1648H201.291C201.331 90.3561 201.436 90.5077 201.608 90.6198C201.786 90.7319 202.02 90.7879 202.31 90.7879H202.725C203.075 90.7879 203.335 90.7187 203.507 90.5802C203.678 90.4352 203.764 90.244 203.764 90.0066C203.764 89.7758 203.685 89.5945 203.526 89.4627C203.375 89.3242 203.147 89.2319 202.844 89.1857L202.112 89.0671C201.578 88.9748 201.179 88.8099 200.915 88.5726C200.658 88.3286 200.53 87.9759 200.53 87.5143C200.53 87.0264 200.685 86.6506 200.994 86.3869C201.304 86.1165 201.769 85.9814 202.389 85.9814H202.765C203.286 85.9814 203.704 86.1034 204.021 86.3473C204.337 86.5913 204.528 86.9209 204.594 87.3363H203.704C203.665 87.1649 203.566 87.0297 203.408 86.9308C203.249 86.8253 203.035 86.7726 202.765 86.7726H202.389C202.053 86.7726 201.805 86.8352 201.647 86.9605C201.496 87.0858 201.42 87.2737 201.42 87.5242C201.42 87.7484 201.486 87.9132 201.618 88.0187C201.749 88.1242 201.957 88.2 202.241 88.2462L202.972 88.3649C203.559 88.4572 203.985 88.6286 204.248 88.8791C204.519 89.1297 204.654 89.4923 204.654 89.967C204.654 90.4681 204.492 90.8637 204.169 91.1538C203.853 91.4374 203.371 91.5791 202.725 91.5791H202.31Z" fill="white"/>
<path d="M214.17 91.5791C213.801 91.5791 213.478 91.5231 213.201 91.411C212.931 91.2923 212.713 91.1275 212.548 90.9165C212.39 90.7055 212.294 90.455 212.261 90.1648H213.151C213.191 90.3561 213.296 90.5077 213.468 90.6198C213.646 90.7319 213.88 90.7879 214.17 90.7879H214.585C214.935 90.7879 215.195 90.7187 215.367 90.5802C215.538 90.4352 215.624 90.244 215.624 90.0066C215.624 89.7758 215.545 89.5945 215.387 89.4627C215.235 89.3242 215.007 89.2319 214.704 89.1857L213.972 89.0671C213.438 88.9748 213.039 88.8099 212.776 88.5726C212.518 88.3286 212.39 87.9759 212.39 87.5143C212.39 87.0264 212.545 86.6506 212.855 86.3869C213.165 86.1165 213.629 85.9814 214.249 85.9814H214.625C215.146 85.9814 215.565 86.1034 215.881 86.3473C216.198 86.5913 216.389 86.9209 216.455 87.3363H215.565C215.525 87.1649 215.426 87.0297 215.268 86.9308C215.11 86.8253 214.895 86.7726 214.625 86.7726H214.249C213.913 86.7726 213.666 86.8352 213.507 86.9605C213.356 87.0858 213.28 87.2737 213.28 87.5242C213.28 87.7484 213.346 87.9132 213.478 88.0187C213.61 88.1242 213.817 88.2 214.101 88.2462L214.833 88.3649C215.42 88.4572 215.845 88.6286 216.109 88.8791C216.379 89.1297 216.514 89.4923 216.514 89.967C216.514 90.4681 216.352 90.8637 216.029 91.1538C215.713 91.4374 215.232 91.5791 214.585 91.5791H214.17Z" fill="white"/>
<path d="M220.268 91.5791C219.833 91.5791 219.457 91.4967 219.141 91.3319C218.824 91.167 218.577 90.9297 218.399 90.6198C218.228 90.3033 218.142 89.9308 218.142 89.5022V88.0583C218.142 87.6231 218.228 87.2506 218.399 86.9407C218.577 86.6308 218.824 86.3935 219.141 86.2286C219.457 86.0638 219.833 85.9814 220.268 85.9814C220.704 85.9814 221.079 86.0638 221.396 86.2286C221.712 86.3935 221.956 86.6308 222.128 86.9407C222.306 87.2506 222.395 87.6198 222.395 88.0484V89.5022C222.395 89.9308 222.306 90.3033 222.128 90.6198C221.956 90.9297 221.712 91.167 221.396 91.3319C221.079 91.4967 220.704 91.5791 220.268 91.5791ZM220.268 90.7879C220.657 90.7879 220.961 90.6791 221.178 90.4615C221.396 90.244 221.505 89.9242 221.505 89.5022V88.0583C221.505 87.6363 221.396 87.3165 221.178 87.0989C220.961 86.8814 220.657 86.7726 220.268 86.7726C219.886 86.7726 219.583 86.8814 219.358 87.0989C219.141 87.3165 219.032 87.6363 219.032 88.0583V89.5022C219.032 89.9242 219.141 90.244 219.358 90.4615C219.583 90.6791 219.886 90.7879 220.268 90.7879Z" fill="white"/>
<path d="M226.199 91.5791C225.763 91.5791 225.388 91.4967 225.071 91.3319C224.755 91.167 224.507 90.9297 224.329 90.6198C224.158 90.3033 224.072 89.9308 224.072 89.5022V88.0583C224.072 87.6231 224.158 87.2506 224.329 86.9407C224.507 86.6308 224.755 86.3935 225.071 86.2286C225.388 86.0638 225.763 85.9814 226.199 85.9814C226.634 85.9814 227.009 86.0638 227.326 86.2286C227.642 86.3935 227.886 86.6308 228.058 86.9407C228.236 87.2506 228.325 87.6198 228.325 88.0484V89.5022C228.325 89.9308 228.236 90.3033 228.058 90.6198C227.886 90.9297 227.642 91.167 227.326 91.3319C227.009 91.4967 226.634 91.5791 226.199 91.5791ZM226.199 90.7879C226.588 90.7879 226.891 90.6791 227.108 90.4615C227.326 90.244 227.435 89.9242 227.435 89.5022V88.0583C227.435 87.6363 227.326 87.3165 227.108 87.0989C226.891 86.8814 226.588 86.7726 226.199 86.7726C225.816 86.7726 225.513 86.8814 225.289 87.0989C225.071 87.3165 224.962 87.6363 224.962 88.0583V89.5022C224.962 89.9242 225.071 90.244 225.289 90.4615C225.513 90.6791 225.816 90.7879 226.199 90.7879Z" fill="white"/>
<path d="M230.072 91.5V86.0605H230.962V87.0989H231.15L230.962 87.3066C230.962 86.8781 231.09 86.5484 231.347 86.3176C231.604 86.0803 231.961 85.9616 232.415 85.9616C232.963 85.9616 233.398 86.1297 233.721 86.466C234.044 86.8022 234.206 87.2605 234.206 87.8407V91.5H233.315V87.9396C233.315 87.5506 233.21 87.2539 232.999 87.0495C232.795 86.8385 232.514 86.733 232.158 86.733C231.789 86.733 231.496 86.8451 231.278 87.0693C231.067 87.2935 230.962 87.6165 230.962 88.0385V91.5H230.072Z" fill="white"/>
<path d="M237.742 89.3736L237.535 85.4671V84.2803H238.583V85.4671L238.375 89.3736H237.742ZM237.91 91.5494C237.739 91.5494 237.597 91.4934 237.485 91.3813C237.373 91.2692 237.317 91.1275 237.317 90.956C237.317 90.7846 237.373 90.6429 237.485 90.5308C237.597 90.4187 237.739 90.3626 237.91 90.3626H238.207C238.398 90.3626 238.543 90.4187 238.642 90.5308C238.748 90.6363 238.801 90.7747 238.801 90.9462C238.801 91.1176 238.744 91.2626 238.632 91.3813C238.52 91.4934 238.379 91.5494 238.207 91.5494H237.91Z" fill="white"/>
</svg>
